<?xml version="1.0" standalone="no"?>
<!DOCTYPE svg PUBLIC "-//W3C//DTD SVG 20010904//EN" "http://www.w3.org/TR/2001/REC-SVG-20010904/DTD/svg10.dtd">
<!-- Created using Karbon, part of Calligra: http://www.calligra.org/karbon -->
<svg xmlns="http://www.w3.org/2000/svg" xmlns:xlink="http://www.w3.org/1999/xlink" width="104.882pt" height="69.483pt">
<defs/>
<g id="layer0">
  <path id="shape0" transform="translate(0.972243, 16.042)" fill="none" stroke="#000000" stroke-width="1.41732529000" d="M0.16204 0C0.486121 0 12.2611 0 35.4869 0C34.9467 30.1395 34.8387 45.2633 35.1628 45.3713C35.6489 45.5334 0 45.2093 0 45.2093"/>
  <path id="shape1" transform="translate(36.9452, 19.7689)" fill="none" stroke="#3c4036" stroke-width="1.41732529000" d="M0.648162 1.13428L84.099 0L83.6129 38.8897C27.871 38.2416 0 37.9175 0 37.9175"/>
  <path id="shape2" transform="translate(38.0795, 21.0653)" fill="none" stroke="#3c4036" stroke-width="1.41732529000" d="M6.31958 0L0 36.135"/>
  <path id="shape3" transform="translate(43.2648, 20.7412)" fill="none" stroke="#3c4036" stroke-width="1.41732529000" d="M6.96774 0C2.32258 24.6302 0 36.8912 0 36.7832"/>
  <path id="shape4" transform="translate(49.2523, 21.0653)" fill="none" stroke="#3c4036" stroke-width="1.41732529000" d="M7.46183 0C1.7364 24.3061 -0.694206 36.4051 0.17001 36.2971"/>
  <path id="shape5" transform="translate(57.2003, 20.7412)" fill="none" stroke="#3c4036" stroke-width="1.41732529000" d="M7.29182 0L0 36.9452"/>
  <path id="shape6" transform="translate(63.5199, 20.5791)" fill="none" stroke="#3c4036" stroke-width="1.41732529000" d="M0 37.1073L6.96774 0"/>
  <path id="shape7" transform="translate(70.4876, 20.2551)" fill="none" stroke="#3c4036" stroke-width="1.41732529000" d="M8.58815 0L0 37.7554"/>
  <path id="shape8" transform="translate(78.4276, 19.931)" fill="none" stroke="#3c4036" stroke-width="1.41732529000" d="M0 37.7554C0 37.7554 3.07877 25.1703 9.23631 0"/>
  <path id="shape9" transform="translate(85.2333, 20.7412)" fill="none" stroke="#3c4036" stroke-width="1.41732529000" d="M8.91223 0L0 37.5934"/>
  <path id="shape10" transform="translate(92.6872, 20.2551)" fill="none" stroke="#3c4036" stroke-width="1.41732529000" d="M0 38.0795C6.15754 12.6932 9.29032 0 9.39835 0"/>
  <path id="shape11" transform="translate(100.627, 20.4171)" fill="none" stroke="#3c4036" stroke-width="1.41732529000" d="M8.91223 0L0 37.4313"/>
  <path id="shape12" transform="translate(108.243, 19.931)" fill="none" stroke="#3c4036" stroke-width="1.41732529000" d="M8.10202 0L0 37.9175C0.216054 37.5934 0.378094 37.4313 0.486121 37.4313"/>
  <path id="shape13" transform="translate(114.401, 34.0285)" fill="none" stroke="#3c4036" stroke-width="1.41732529000" d="M0 23.982L6.15754 0"/>
 </g>
</svg>
