<?xml version="1.0" standalone="no"?>
<!DOCTYPE svg PUBLIC "-//W3C//DTD SVG 20010904//EN" "http://www.w3.org/TR/2001/REC-SVG-20010904/DTD/svg10.dtd">
<!-- Created using Karbon, part of Calligra: http://www.calligra.org/karbon -->
<svg xmlns="http://www.w3.org/2000/svg" xmlns:xlink="http://www.w3.org/1999/xlink" width="104.882pt" height="69.483pt">
<defs/>
<g id="layer0">
  <path id="shape0" transform="translate(0.972243, 16.042)" fill="none" stroke="#000000" stroke-width="1.41732529000" d="M0.16204 0C0.486121 0 12.2611 0 35.4869 0C34.9467 30.1395 34.8387 45.2633 35.1628 45.3713C35.6489 45.5334 0 45.2093 0 45.2093"/>
  <path id="shape1" transform="translate(36.2971, 19.4449)" fill="none" stroke="#3c4036" stroke-width="1.41732529000" d="M0.16204 0.324081L43.7509 0L43.2648 16.042L82.4786 16.042L82.1545 37.5934L0 37.2693"/>
  <path id="shape2" transform="translate(36.4591, 23.1718)" fill="none" stroke="#3c4036" stroke-width="1.41732529000" d="M0 0L42.9407 0.16204"/>
  <path id="shape3" transform="translate(35.973, 27.7089)" fill="none" stroke="#3c4036" stroke-width="1.41732529000" d="M44.237 0L0 0.324081"/>
  <path id="shape4" transform="translate(36.2971, 31.7599)" fill="none" stroke="#3c4036" stroke-width="1.41732529000" d="M0 0.324081C0 0.324081 14.2055 0.216054 42.6166 0"/>
  <path id="shape5" transform="translate(36.4591, 35.4869)" fill="none" stroke="#3c4036" stroke-width="1.41732529000" d="M0 0L43.5889 0.324081L43.5889 0.324081"/>
  <path id="shape6" transform="translate(36.6211, 39.2138)" fill="none" stroke="#3c4036" stroke-width="1.41732529000" d="M0 0L81.0202 0.324081"/>
  <path id="shape7" transform="translate(36.7832, 43.1028)" fill="none" stroke="#3c4036" stroke-width="1.41732529000" d="M81.9925 0C27.3308 0 0 0 0 0"/>
  <path id="shape8" transform="translate(36.2971, 46.8297)" fill="none" stroke="#3c4036" stroke-width="1.41732529000" d="M0 0.486121L81.6684 0L81.6684 0"/>
  <path id="shape9" transform="translate(36.216, 50.3946)" fill="none" stroke="#3c4036" stroke-width="1.41732529000" d="M82.0735 0L0.0810202 0.648162C-0.0270067 0.756189 -0.0270067 0.864216 0.0810202 0.972243"/>
  <path id="shape10" transform="translate(36.2971, 53.6354)" fill="none" stroke="#3c4036" stroke-width="1.41732529000" d="M0 0L82.1545 0L82.1545 0"/>
 </g>
</svg>
