<?xml version="1.0" standalone="no"?>
<!DOCTYPE svg PUBLIC "-//W3C//DTD SVG 20010904//EN" "http://www.w3.org/TR/2001/REC-SVG-20010904/DTD/svg10.dtd">
<!-- Created using Karbon, part of Calligra: http://www.calligra.org/karbon -->
<svg xmlns="http://www.w3.org/2000/svg" xmlns:xlink="http://www.w3.org/1999/xlink" width="104.882pt" height="69.483pt">
<defs/>
<g id="layer0">
  <path id="shape0" transform="translate(0.972243, 16.042)" fill="none" stroke="#000000" stroke-width="1.41732529000" d="M0.16204 0C0.486121 0 12.2611 0 35.4869 0C34.9467 30.1395 34.8387 45.2633 35.1628 45.3713C35.6489 45.5334 0 45.2093 0 45.2093"/>
  <path id="shape1" transform="translate(36.6211, 15.9503)" fill="none" stroke="#3c4036" stroke-width="1.41732529000" d="M0 7.54559C12.3492 16.8075 18.3437 1.70695 28.6812 0.0917238C37.3888 -1.26885 45.6585 13.0123 51.5289 9.49007C55.7 6.98739 59.9889 -2.14292 66.2746 4.14274"/>
  <path id="shape2" transform="translate(36.4591, 30.1395)" fill="none" stroke="#3c4036" stroke-width="1.41732529000" d="M0 0C17.3638 3.15705 42.4382 9.88447 58.4966 9.88447"/>
  <path id="shape3" transform="translate(36.6211, 16.042)" fill="none" stroke="#3c4036" stroke-width="1.41732529000" d="M0 11.5049C10.3306 11.5049 32.0108 18.7375 41.1583 12.6392C45.9418 9.45012 46.4299 0 53.6354 0"/>
  <path id="shape4" transform="translate(36.7832, 31.7939)" fill="none" stroke="#3c4036" stroke-width="1.41732529000" d="M0 3.69291C0.0227107 3.68593 60.7652 -3.53345 60.7652 2.23455"/>
  <path id="shape5" transform="translate(36.6211, 38.4036)" fill="none" stroke="#3c4036" stroke-width="1.41732529000" d="M0 0C12.0975 0 83.0054 2.08566 93.1733 6.64366C93.8011 6.92508 98.9842 8.75019 93.1733 8.75019"/>
  <path id="shape6" transform="translate(35.973, 33.7819)" fill="none" stroke="#3c4036" stroke-width="1.41732529000" d="M0 10.4552C13.8954 10.4552 43.4665 -3.94932 55.0938 1.05684C58.4322 2.49421 69.8394 8.69311 69.8394 7.86254"/>
  <path id="shape7" transform="translate(35.8109, 49.9085)" fill="none" stroke="#3c4036" stroke-width="1.41732529000" d="M0 1.78245C21.8089 1.78245 46.1269 0 65.6264 0"/>
  <path id="shape8" transform="translate(36.2971, 47.1045)" fill="none" stroke="#3c4036" stroke-width="1.41732529000" d="M0 1.18353C24.8318 1.18353 51.0326 -4.65667 72.4321 9.60963"/>
  <path id="shape9" transform="translate(36.4591, 56.8762)" fill="none" stroke="#3c4036" stroke-width="1.41732529000" d="M0 0C16.497 0 32.1202 7.12978 41.8064 7.12978"/>
 </g>
</svg>
