<?xml version="1.0" standalone="no"?>
<!DOCTYPE svg PUBLIC "-//W3C//DTD SVG 20010904//EN" "http://www.w3.org/TR/2001/REC-SVG-20010904/DTD/svg10.dtd">
<!-- Created using Karbon, part of Calligra: http://www.calligra.org/karbon -->
<svg xmlns="http://www.w3.org/2000/svg" xmlns:xlink="http://www.w3.org/1999/xlink" width="104.882pt" height="69.483pt">
<defs/>
<g id="layer0">
  <path id="shape0" transform="translate(0.972243, 16.042)" fill="none" stroke="#000000" stroke-width="1.41732529000" stroke-linecap="butt" stroke-linejoin="miter" stroke-miterlimit="2.00000000000" d="M0.16204 0C0.486121 0 12.2611 0 35.4869 0C34.9467 30.1395 34.8387 45.2633 35.1628 45.3713C35.6489 45.5334 0 45.2093 0 45.2093"/>
  <path id="shape1" transform="translate(36.9452, 19.7689)" fill="#ffffff" stroke="#3c4036" stroke-width="1.41732529000" stroke-linecap="butt" stroke-linejoin="miter" stroke-miterlimit="2.00000000000" d="M0.648162 1.13428L84.099 0L83.6129 38.8897C27.871 38.2416 0 37.9175 0 37.9175"/>
  <path id="shape2" transform="translate(38.0795, 21.0653)" fill="none" stroke="#3c4036" stroke-width="1.41732529000" stroke-linecap="butt" stroke-linejoin="miter" stroke-miterlimit="2.00000000000" d="M6.31958 0L0 36.135"/>
  <path id="shape3" transform="translate(43.2648, 20.7412)" fill="none" stroke="#3c4036" stroke-width="1.41732529000" stroke-linecap="butt" stroke-linejoin="miter" stroke-miterlimit="2.00000000000" d="M6.96774 0C2.32258 24.6302 0 36.8912 0 36.7832"/>
  <path id="shape4" transform="translate(49.2523, 21.0653)" fill="none" stroke="#3c4036" stroke-width="1.41732529000" stroke-linecap="butt" stroke-linejoin="miter" stroke-miterlimit="2.00000000000" d="M7.46183 0C1.7364 24.3061 -0.694206 36.4051 0.17001 36.2971"/>
  <path id="shape5" transform="translate(57.2003, 20.7412)" fill="none" stroke="#3c4036" stroke-width="1.41732529000" stroke-linecap="butt" stroke-linejoin="miter" stroke-miterlimit="2.00000000000" d="M7.29182 0L0 36.9452"/>
  <path id="shape6" transform="translate(63.5199, 20.5791)" fill="none" stroke="#3c4036" stroke-width="1.41732529000" stroke-linecap="butt" stroke-linejoin="miter" stroke-miterlimit="2.00000000000" d="M0 37.1073L6.96774 0"/>
  <path id="shape7" transform="translate(70.4876, 20.2551)" fill="#ffffff" stroke="#3c4036" stroke-width="1.41732529000" stroke-linecap="butt" stroke-linejoin="miter" stroke-miterlimit="2.00000000000" d="M8.58815 0L0 37.7554"/>
  <path id="shape8" transform="translate(78.4276, 19.931)" fill="#ffffff" stroke="#3c4036" stroke-width="1.41732529000" stroke-linecap="butt" stroke-linejoin="miter" stroke-miterlimit="2.00000000000" d="M0 37.7554C0 37.7554 3.07877 25.1703 9.23631 0"/>
  <path id="shape9" transform="translate(85.2333, 20.7412)" fill="#ffffff" stroke="#3c4036" stroke-width="1.41732529000" stroke-linecap="butt" stroke-linejoin="miter" stroke-miterlimit="2.00000000000" d="M8.91223 0L0 37.5934"/>
  <path id="shape10" transform="translate(92.2296, 20.2551)" fill="#44ff00" stroke="#3c4036" stroke-width="1.41732529000" stroke-linecap="butt" stroke-linejoin="miter" stroke-miterlimit="2.00000000000" d="M0 38.0795C6.45734 12.6932 9.74265 0 9.85594 0"/>
  <path id="shape11" transform="translate(100.627, 20.4171)" fill="#ffffff" stroke="#3c4036" stroke-width="1.41732529000" stroke-linecap="butt" stroke-linejoin="miter" stroke-miterlimit="2.00000000000" d="M8.91223 0L0 37.4313"/>
  <path id="shape12" transform="translate(108.243, 19.931)" fill="#ffffff" stroke="#3c4036" stroke-width="1.41732529000" stroke-linecap="butt" stroke-linejoin="miter" stroke-miterlimit="2.00000000000" d="M8.10202 0L0 37.9175C0.216054 37.5934 0.378094 37.4313 0.486121 37.4313"/>
  <path id="shape13" transform="translate(114.401, 34.0285)" fill="#ffffff" stroke="#3c4036" stroke-width="1.41732529000" stroke-linecap="butt" stroke-linejoin="miter" stroke-miterlimit="2.00000000000" d="M0 23.982L6.15754 0"/>
  <path id="shape0" transform="translate(74.7007, 20.9032)" fill="#ffffff" fill-rule="evenodd" stroke="#44ff00" stroke-width="1.41732529000" d="M0.486122 0C0.162041 0 0 12.4231 0 37.2693"/>
  <text id="shape1" fill="#44ff00" font-family="ComicSans" font-size="20.00000000000pt" x="0.00000000000pt" y="15.20312500000pt" transform="translate(17.8075, 64.0063)"><tspan>Zinn</tspan></text>
  <path id="shape2" transform="translate(75.388, 20.8315)" fill="none" stroke="#44ff00" stroke-width="1.41732529000" stroke-linecap="butt" stroke-linejoin="miter" stroke-miterlimit="0.00000000000" d="M5.08187 0C1.38596 14.2236 -0.293992 21.3354 0.0419989 21.3354"/>
  <path id="shape3" transform="translate(75.43, 21.1675)" fill="none" stroke="#44ff00" stroke-width="1.41732529000" stroke-linecap="butt" stroke-linejoin="miter" stroke-miterlimit="0.00000000000" d="M7.5598 0L0 29.7352"/>
  <path id="shape4" transform="translate(76.102, 21.3354)" fill="none" stroke="#44ff00" stroke-width="1.41732529000" stroke-linecap="butt" stroke-linejoin="miter" stroke-miterlimit="0.00000000000" d="M0 35.2791L9.23976 0"/>
  <path id="shape5" transform="translate(80.6255, 21.5034)" fill="none" stroke="#44ff00" stroke-width="1.41732529000" stroke-linecap="butt" stroke-linejoin="miter" stroke-miterlimit="0.00000000000" d="M8.41223 0C2.58838 23.5194 -0.21155 35.2791 0.0124441 35.2791"/>
  <path id="shape6" transform="translate(83.4938, 20.9995)" fill="none" stroke="#44ff00" stroke-width="1.41732529000" stroke-linecap="butt" stroke-linejoin="miter" stroke-miterlimit="0.00000000000" d="M8.06379 0C2.68793 24.1914 0 36.2871 0 36.2871"/>
  <path id="shape7" transform="translate(87.8342, 21.6714)" fill="none" stroke="#44ff00" stroke-width="1.41732529000" stroke-linecap="butt" stroke-linejoin="miter" stroke-miterlimit="0.00000000000" d="M8.25928 0C2.43543 23.7434 -0.308501 35.6151 0.0274902 35.6151"/>
  <path id="shape8" transform="translate(90.0457, 20.8315)" fill="none" stroke="#44ff00" stroke-width="1.41732529000" stroke-linecap="butt" stroke-linejoin="miter" stroke-miterlimit="0.00000000000" d="M9.40776 0C3.13592 24.5274 0 36.735 0 36.6231"/>
  <path id="shape9" transform="translate(94.4106, 21.1675)" fill="none" stroke="#44ff00" stroke-width="1.41732529000" stroke-linecap="butt" stroke-linejoin="miter" stroke-miterlimit="0.00000000000" d="M9.24271 0C2.97087 24.1914 -0.10905 36.2311 0.00294729 36.1191C0.114944 36.0071 0.170943 35.9511 0.170943 35.9511"/>
  <path id="shape10" transform="translate(97.4375, 20.9989)" fill="none" stroke="#44ff00" stroke-width="1.41732529000" stroke-linecap="butt" stroke-linejoin="miter" stroke-miterlimit="0.00000000000" d="M0 36.4556C0 36.4556 8.73577 -0.167419 8.90377 0.000576204"/>
  <path id="shape11" transform="translate(101.637, 20.8315)" fill="none" stroke="#44ff00" stroke-width="1.41732529000" stroke-linecap="butt" stroke-linejoin="miter" stroke-miterlimit="0.00000000000" d="M9.57575 0L1.17597 36.6231L0 36.1191"/>
  <path id="shape12" transform="translate(106.341, 20.6635)" fill="none" stroke="#44ff00" stroke-width="1.41732529000" stroke-linecap="butt" stroke-linejoin="miter" stroke-miterlimit="0.00000000000" d="M0 36.2871L7.8958 0"/>
  <path id="shape13" transform="translate(110.511, 21.3354)" fill="none" stroke="#44ff00" stroke-width="1.41732529000" stroke-linecap="butt" stroke-linejoin="miter" stroke-miterlimit="0.00000000000" d="M7.58945 0C2.21359 23.8554 -0.306345 35.7271 0.0296463 35.6151"/>
  <path id="shape14" transform="translate(112.389, 27.3833)" fill="none" stroke="#44ff00" stroke-width="1.41732529000" stroke-linecap="butt" stroke-linejoin="miter" stroke-miterlimit="0.00000000000" d="M6.88782 0L0 28.3913C0 28.3913 0 28.3913 0 28.3913"/>
  <path id="shape15" transform="translate(116.915, 44.6868)" fill="none" stroke="#44ff00" stroke-width="1.41732529000" stroke-linecap="butt" stroke-linejoin="miter" stroke-miterlimit="0.00000000000" d="M0.0098821 11.2557C-0.102115 11.2557 0.737863 7.50381 2.52982 0"/>
 </g>
</svg>
