<?xml version="1.0" encoding="UTF-8" standalone="no"?>
<!-- Created with Inkscape (http://www.inkscape.org/) -->

<svg
   xmlns:dc="http://purl.org/dc/elements/1.1/"
   xmlns:cc="http://creativecommons.org/ns#"
   xmlns:rdf="http://www.w3.org/1999/02/22-rdf-syntax-ns#"
   xmlns:svg="http://www.w3.org/2000/svg"
   xmlns="http://www.w3.org/2000/svg"
   xmlns:sodipodi="http://sodipodi.sourceforge.net/DTD/sodipodi-0.dtd"
   xmlns:inkscape="http://www.inkscape.org/namespaces/inkscape"
   width="48px"
   height="48px"
   id="svg6058"
   version="1.1"
   inkscape:version="0.48.5 r10040"
   sodipodi:docname="Kohleschicht_Widerstand.svg">
  <defs
     id="defs6060">
    <inkscape:path-effect
       effect="spiro"
       id="path-effect6653"
       is_visible="true" />
    <inkscape:path-effect
       effect="spiro"
       id="path-effect6649"
       is_visible="true" />
    <inkscape:path-effect
       effect="spiro"
       id="path-effect6645"
       is_visible="true" />
    <inkscape:path-effect
       effect="spiro"
       id="path-effect6641"
       is_visible="true" />
    <inkscape:path-effect
       effect="spiro"
       id="path-effect6615"
       is_visible="true" />
    <inkscape:path-effect
       effect="spiro"
       id="path-effect6076"
       is_visible="true" />
    <inkscape:path-effect
       effect="spiro"
       id="path-effect6072"
       is_visible="true" />
    <inkscape:path-effect
       effect="spiro"
       id="path-effect6076-1"
       is_visible="true" />
    <inkscape:path-effect
       effect="spiro"
       id="path-effect6072-5"
       is_visible="true" />
  </defs>
  <sodipodi:namedview
     id="base"
     pagecolor="#ffffff"
     bordercolor="#666666"
     borderopacity="1.0"
     inkscape:pageopacity="0.0"
     inkscape:pageshadow="2"
     inkscape:zoom="7"
     inkscape:cx="-1.2142857"
     inkscape:cy="24"
     inkscape:current-layer="layer1"
     showgrid="true"
     inkscape:grid-bbox="true"
     inkscape:document-units="px"
     inkscape:window-width="1920"
     inkscape:window-height="1025"
     inkscape:window-x="-3"
     inkscape:window-y="-3"
     inkscape:window-maximized="1" />
  <metadata
     id="metadata6063">
    <rdf:RDF>
      <cc:Work
         rdf:about="">
        <dc:format>image/svg+xml</dc:format>
        <dc:type
           rdf:resource="http://purl.org/dc/dcmitype/StillImage" />
        <dc:title></dc:title>
      </cc:Work>
    </rdf:RDF>
  </metadata>
  <g
     id="layer1"
     inkscape:label="Layer 1"
     inkscape:groupmode="layer">
    <path
       style="fill:none;stroke:#ff0000;stroke-width:1px;stroke-linecap:butt;stroke-linejoin:miter;stroke-opacity:1"
       d="m 2.8571429,21.285714 7.5714281,-0.142857 -0.142857,-5.857143 5.571429,0"
       id="path6070"
       inkscape:path-effect="#path-effect6072"
       inkscape:original-d="m 2.8571429,21.285714 7.5714281,-0.142857 -0.142857,-5.857143 5.571429,0"
       inkscape:connector-curvature="0" />
    <path
       style="fill:none;stroke:#ff0000;stroke-width:1px;stroke-linecap:butt;stroke-linejoin:miter;stroke-opacity:1"
       d="m 10.285714,21 0.142857,5 4.857143,-0.142857"
       id="path6074"
       inkscape:path-effect="#path-effect6076"
       inkscape:original-d="m 10.285714,21 0.142857,5 4.857143,-0.142857"
       inkscape:connector-curvature="0" />
    <path
       style="fill:none;stroke:#ff0000;stroke-width:1px;stroke-linecap:butt;stroke-linejoin:miter;stroke-opacity:1"
       d="m 39.785714,21.357143 -7.571428,-0.142857 0.142857,-5.857143 -5.571429,0"
       id="path6070-8"
       inkscape:path-effect="#path-effect6072-5"
       inkscape:original-d="m 39.785714,21.357143 -7.571428,-0.142857 0.142857,-5.857143 -5.571429,0"
       inkscape:connector-curvature="0" />
    <path
       style="fill:none;stroke:#ff0000;stroke-width:1px;stroke-linecap:butt;stroke-linejoin:miter;stroke-opacity:1"
       d="m 32.357143,21.071429 -0.142857,5 -4.857143,-0.142857"
       id="path6074-7"
       inkscape:path-effect="#path-effect6076-1"
       inkscape:original-d="m 32.357143,21.071429 -0.142857,5 -4.857143,-0.142857"
       inkscape:connector-curvature="0" />
    <path
       style="fill:none;stroke:#000000;stroke-width:1px;stroke-linecap:butt;stroke-linejoin:miter;stroke-opacity:1"
       d="m 11.714286,16.428571 19.571428,0 -0.142857,8.428572 -19.714286,-0.142857 0.285715,-8.285715"
       id="path6613"
       inkscape:path-effect="#path-effect6615"
       inkscape:original-d="m 11.714286,16.428571 19.571428,0 -0.142857,8.428572 -19.714286,-0.142857 z"
       inkscape:connector-curvature="0" />
    <path
       style="fill:#008000;fill-opacity:1;stroke:#000000;stroke-width:0.20000000000000001;stroke-linecap:butt;stroke-miterlimit:0.29999999999999999;stroke-opacity:1;stroke-dasharray:none"
       id="path6619"
       d="m 13.079766,19.995235 c 0.396748,0.20314 0.776568,0.438709 1.133553,0.705343 0.03287,0.02415 0.06696,0.04672 0.09862,0.07245 0.07979,0.06486 0.159785,0.129653 0.235696,0.199013 0.01819,0.01662 0.183451,0.179819 0.189099,0.175806 0.01166,-0.0083 -0.01934,-0.02109 -0.029,-0.03164 0.204366,0.126475 0.373567,0.300854 0.565687,0.442532 0.1977,0.200344 0.213376,0.170605 0.478019,0.376228 0.221047,0.150119 0.389399,0.384978 0.541168,0.583691 0.323034,0.383526 -0.13157,-0.129699 0.205862,0.247353 0.03612,0.04036 -0.07233,-0.08234 -0.11746,-0.112295 -0.05788,-0.03841 -0.123303,-0.06403 -0.184954,-0.09605 -0.243846,-0.107499 -0.318985,-0.01291 -0.5137,0.01873 -0.02461,0.004 0.08793,-0.03075 0.0642,-0.03838 -0.02426,-0.0078 -0.04437,0.02508 -0.06655,0.03762 0.173383,-0.138193 0.354008,-0.26963 0.527138,-0.404315 0.142895,-0.106669 0.26318,-0.234389 0.389997,-0.357052 0.203811,-0.194218 0.434232,-0.348976 0.630813,-0.497737 -0.06897,0.02651 -0.0068,0.0046 0.110426,-0.100265 0.02134,-0.0191 -0.07978,0.08036 -0.06563,0.05546 0.05754,-0.101221 0.224194,-0.254789 0.289476,-0.321034 0.01243,-0.01293 0.02394,-0.02681 0.03728,-0.0388 0.08267,-0.07435 0.225044,-0.223204 0.109446,-0.09832 -0.06137,0.0663 -0.112174,0.173457 0.03506,-0.08631 0.08281,-0.181006 0.168911,-0.366771 0.258853,-0.546783 0.04601,-0.137115 0.173809,-0.260526 0.187131,-0.402928 0.06649,-0.234737 0.208967,-0.444605 0.28034,-0.676132 0.117837,-0.263273 0.278038,-0.502089 0.424886,-0.735815 0.03802,-0.09238 0.07113,-0.247424 0.117182,-0.380315 0.158492,-0.405432 0.418999,-0.721003 0.748746,-0.996885 0.488849,-0.303947 0.848846,-0.436271 1.453745,-0.309479 0.378547,0.101741 0.644205,0.360364 0.936428,0.59804 0.153352,0.153554 0.309087,0.305267 0.460791,0.458624 0.212187,0.197502 0.387926,0.425582 0.551054,0.665074 0.141372,0.135001 0.323634,0.414862 0.445385,0.666421 0.107224,0.220517 0.189134,0.388396 0.28319,0.613079 -2.32e-4,-0.0052 -0.0033,-0.0199 -6.96e-4,-0.01545 0.08755,0.148551 0.166233,0.297487 0.257657,0.44247 0.121739,0.21544 0.238952,0.43239 0.356719,0.647696 0.127089,0.290841 0.149797,0.26343 0.315456,0.555127 0.120537,0.295948 0.227547,0.596243 0.304981,0.907079 0.06077,0.164424 0.115106,0.269045 0.19765,0.474455 -9.93e-4,-0.0072 -0.0067,-0.0277 -0.003,-0.02151 0.107634,0.177502 0.185542,0.369001 0.272831,0.564437 -0.0078,0.03112 0.243073,0.29919 0.0346,0.06285 -0.0256,-0.02015 -0.05047,-0.04127 -0.07681,-0.06045 -0.04802,-0.03498 -0.06686,-0.03524 0.005,-0.03101 0.09924,0.0058 0.103963,0.0086 0.01691,-0.0051 0.0783,0.0061 0.46823,-0.129265 0.240768,-0.05761 0.09499,-0.0528 0.08354,-0.0634 0.218006,-0.189204 0.143807,-0.132444 0.275903,-0.275515 0.41325,-0.414132 0.147446,-0.140662 0.287232,-0.288705 0.430439,-0.432151 0.147279,-0.1393 0.286371,-0.286473 0.428928,-0.429025 0.147215,-0.139084 0.286144,-0.286127 0.428565,-0.428544 0.147213,-0.139092 0.286143,-0.28614 0.428565,-0.428562 0.176934,-0.208458 0.408359,-0.357276 0.610082,-0.537874 0.151103,-0.100089 0.280194,-0.226526 0.40876,-0.344066 0.286914,-0.29909 0.579568,-0.400976 0.977673,-0.47766 1.505751,-0.169211 1.745051,1.960242 0.2393,2.129454 l 0,0 c 0.109039,-0.03189 0.270247,-0.06243 0.33587,-0.168222 0.0051,-0.0082 -0.01545,0.01138 -0.02317,0.01708 -0.18769,0.182597 -0.382952,0.359352 -0.595271,0.513077 -0.1333,0.104451 -0.264792,0.1885 -0.376447,0.319269 -0.139969,0.146291 -0.284446,0.287903 -0.42858,0.428578 -0.139973,0.146293 -0.284456,0.287907 -0.428597,0.42858 -0.139839,0.146147 -0.2842,0.287624 -0.428145,0.428173 -0.139004,0.145463 -0.28252,0.286229 -0.425192,0.426422 -0.144154,0.151986 -0.292182,0.299533 -0.442287,0.445319 -0.22072,0.220668 -0.452917,0.435455 -0.729314,0.585703 -0.344651,0.168602 -0.700732,0.279893 -1.084217,0.319 -0.516852,0.02177 -1.017296,-0.03868 -1.455222,-0.342165 -0.297311,-0.261867 -0.534432,-0.555631 -0.696074,-0.920767 -0.04662,-0.213696 -0.238113,-0.393993 -0.295461,-0.606052 -0.0828,-0.255258 -0.227718,-0.491382 -0.285146,-0.756864 -0.01054,-0.05818 -0.170141,-0.47342 -0.110248,-0.390598 -0.07696,-0.137313 -0.251559,-0.362118 -0.307918,-0.54111 -0.09533,-0.178327 -0.187687,-0.356575 -0.288606,-0.531087 -0.155646,-0.25034 -0.309044,-0.501887 -0.431621,-0.770794 -0.05321,-0.195539 -0.186125,-0.369678 -0.260201,-0.557777 0.01764,0.02341 0.03015,0.07696 0.05754,0.0665 0.01183,-0.0045 -0.01439,-0.02088 -0.0226,-0.03052 -0.105525,-0.123967 -0.207399,-0.238259 -0.301442,-0.371652 -0.06402,-0.117774 0.122957,0.223285 -0.115808,-0.162685 -0.01077,-0.01741 0.02796,0.03007 0.04377,0.04308 0.05603,0.04612 -0.121827,-0.09068 -0.150426,-0.157378 -0.139009,-0.134424 -0.278925,-0.279038 -0.408302,-0.411382 -0.150731,-0.133805 -0.09899,-0.05946 -0.203458,-0.176852 -0.01493,-0.01678 0.05834,0.053 0.06002,0.03061 0.0021,-0.02818 -0.310443,-0.109094 0.08404,0.0083 0.170697,0.0085 0.319198,-0.02091 0.47091,-0.08933 0.01638,-0.0074 -0.03294,0.01441 -0.04885,0.02275 -0.04923,0.02584 -0.09376,0.06214 -0.146492,0.07975 -0.02857,0.0095 0.0479,-0.03655 0.07184,-0.05483 0.02988,-0.03236 0.110727,-0.137046 0.08331,-0.102569 -0.02634,0.03313 -0.04435,0.07305 -0.07433,0.102921 -0.01432,0.01426 0.03703,-0.0717 0.026,-0.05477 -0.04759,0.07304 -0.0616,0.138388 -0.03015,0.02791 -0.101067,0.291553 -0.166722,0.604423 -0.355185,0.861604 -0.06838,0.114629 -0.281529,0.453356 -0.217154,0.336431 -0.08952,0.218638 -0.144746,0.320939 -0.228671,0.529143 -0.100062,0.297334 -0.215668,0.515229 -0.344939,0.77929 -0.07896,0.172598 -0.194546,0.407082 -0.295813,0.612849 -0.06032,0.09163 -0.103534,0.193964 -0.165697,0.284355 -0.12176,0.177053 -0.274669,0.299558 -0.419361,0.439542 0.01423,-0.01931 0.03056,-0.03724 0.0427,-0.05793 0.0073,-0.01252 -0.01914,0.02182 -0.02818,0.03317 -0.123666,0.155426 -0.207955,0.262285 -0.356005,0.388597 -0.05529,0.04717 -0.109451,0.09566 -0.164177,0.143487 -0.0757,0.05227 -0.458948,0.398411 -0.328697,0.232601 0.0039,-0.005 -0.01076,0.0069 -0.01613,0.01038 -0.173408,0.17705 -0.352603,0.349682 -0.544873,0.506329 -0.181391,0.150979 -0.371895,0.287736 -0.558634,0.431229 -0.441328,0.332573 -0.922955,0.539424 -1.487833,0.388444 -0.110483,-0.04697 -0.226981,-0.08176 -0.331448,-0.140919 -0.231406,-0.131037 -0.415792,-0.352436 -0.577362,-0.559455 -0.07738,-0.09574 -0.173599,-0.179841 -0.228879,-0.289835 -0.0028,-0.0055 0.295972,0.261966 -0.04246,-0.028 0.07152,0.02064 0.0091,0.0043 -0.127976,-0.09236 C 14.152547,23.41998 13.978156,23.300201 13.909918,23.211838 13.76419,23.088715 13.691366,23.015741 13.520326,22.900005 13.30329,22.742539 13.117937,22.560485 12.9062,22.398599 12.642198,22.17364 12.314992,22.027292 12.016611,21.855756 10.701024,21.103992 11.764179,19.243471 13.079766,19.995235 z"
       inkscape:connector-curvature="0" />
    <path
       style="fill:#0000ff;fill-opacity:1;stroke:#000000;stroke-width:0.30000000999999998;stroke-linecap:butt;stroke-miterlimit:0.20000000000000001;stroke-opacity:1;stroke-dasharray:none;opacity:1"
       id="path6621"
       d="m 3.3825276,20.052514 c 0.1470641,-0.421679 0.2635878,-0.852408 0.4131588,-1.27305 0.09476,-0.287953 0.2194408,-0.566753 0.3557041,-0.837145 0.1081425,-0.250977 0.2515936,-0.489402 0.3976642,-0.719995 0.1090561,-0.20907 0.241842,-0.403485 0.3752114,-0.598456 0.1001285,-0.19932 0.2832008,-0.434178 0.4478252,-0.627232 0.00849,-0.04228 0.2056329,-0.292858 0.2918555,-0.417119 0.1178938,-0.201813 0.3655119,-0.346811 0.488771,-0.538152 0.2047653,-0.24386 0.4228123,-0.475857 0.6423435,-0.70621 0.2597934,-0.240667 0.5085251,-0.492339 0.7728718,-0.727941 0.1663971,-0.192854 0.3796004,-0.331331 0.5709846,-0.495228 0.1851167,-0.137468 0.3898887,-0.276557 0.6095928,-0.413655 -0.00839,0.0033 -0.032172,0.01577 -0.02517,0.0097 0.297396,-0.243371 -0.1054639,0.05916 0.2245307,-0.183184 0.2557933,-0.18786 0.1443067,-0.07555 0.2194614,-0.15254 0.2442378,-0.159962 0.4851083,-0.322143 0.7409141,-0.462506 0.2109353,-0.132782 0.4345633,-0.246852 0.6615353,-0.350726 0.13456,-0.07751 0.307468,-0.182087 0.456148,-0.276474 0.218589,-0.12423 0.438849,-0.243572 0.657346,-0.363558 0.280443,-0.151112 0.579109,-0.279619 0.906874,-0.358232 0.405225,-0.0815 0.812682,-0.08059 1.219928,-0.01952 0.249285,0.04875 0.501778,0.07143 0.755067,0.08358 0.307739,0.03656 0.609218,0.105904 0.918005,0.133919 0.278566,0.0062 0.543389,0.101292 0.817619,0.138121 0.325339,0.07457 0.652061,0.138983 0.969678,0.242811 0.208237,0.05913 0.425172,0.07045 0.638065,0.107855 0.198632,0.05942 0.401285,0.08786 0.607236,0.101821 0.279363,0.0013 0.545917,0.0932 0.820732,0.129368 0.228951,0.02428 0.45951,0.02584 0.689489,0.02823 0.166331,2.63e-4 0.376683,-0.06172 0.600572,-0.0943 0.260648,-0.0062 0.428083,-0.06743 0.688909,-0.119063 0.328917,-0.05933 0.663424,-0.06973 0.996686,-0.07626 0.05081,-5.43e-4 0.101633,-0.0012 0.152485,-0.0016 0.148297,-0.0012 0.296606,-0.0011 0.444918,-0.001 0.152214,8.8e-5 0.190813,0.01913 0.128142,-0.007 0.320893,-0.09159 0.65003,-0.08724 0.977915,-0.04558 0.331643,0.03928 0.648797,0.156626 0.949609,0.297628 0.287885,0.113074 0.554152,0.291579 0.819785,0.457403 0.187931,0.08349 0.365175,0.193883 0.560558,0.260938 0.168163,0.08796 0.327054,0.164398 0.513957,0.185111 0.228434,0.02008 0.458079,0.01903 0.687189,0.0196 0.142291,-0.0063 0.285939,0.0077 0.428121,-8.13e-4 0.0067,-4.16e-4 -0.02448,-0.0042 -0.0186,-0.0071 0.0521,-0.02835 0.115743,-0.02555 0.173789,-0.03741 0.321369,-0.06691 0.649245,-0.08571 0.976365,-0.0968 0.152261,-0.01115 0.305997,0.0034 0.4582,-0.0057 0.0055,-3.55e-4 -0.02122,-0.0047 -0.01595,-0.007 0.0542,-0.0264 0.11775,-0.02552 0.176782,-0.03742 0.320884,-0.06566 0.648082,-0.08405 0.974522,-0.09487 0.14744,-0.03428 0.670214,0.04046 0.76989,-0.01591 0.222422,-0.04519 0.451924,-0.05837 0.664483,-0.119776 0.328387,-0.09819 0.669124,-0.13168 1.009642,-0.150571 0.359907,-0.03256 0.713355,0.0045 1.065938,0.07635 0.375287,0.0905 0.723986,0.251351 1.060635,0.436987 0.253617,0.124743 0.497725,0.272131 0.734724,0.426358 0.242464,0.151985 0.479525,0.310121 0.704842,0.48692 0.368594,0.340842 0.558109,0.790137 0.683093,1.266465 0.0581,0.285217 0.142702,0.561832 0.189821,0.850789 0.0078,0.263524 0.07059,0.452927 0.120764,0.713902 0.05773,0.329627 0.06774,0.664653 0.07408,0.998457 0.002,0.191966 0.06466,0.407597 0.09707,0.636877 0.026,0.218103 0.100298,0.455407 0.141307,0.711321 0.0296,0.228881 0.104308,0.469639 0.145502,0.728191 0.0013,-0.005 0.0018,-0.02014 0.0039,-0.01534 0.02414,0.05505 0.221819,0.68055 0.05576,0.249377 0.143693,0.146169 -0.09358,-0.08867 -0.0784,-0.08675 0.04797,0.0056 0.07644,0.05948 0.115916,0.08749 0.0047,0.0033 0.01069,0.004 0.01618,0.0058 0.05674,0.04284 0.113493,0.08557 0.170249,0.128396 0.236715,0.206075 0.434131,0.454049 0.633274,0.695535 0.0036,0.0016 0.0074,0.0033 0.01081,0.0048 0.03909,0.04492 0.08116,0.08731 0.117245,0.134649 0.05838,0.07655 0.112641,0.15616 0.167404,0.235348 0.09632,0.139255 0.111594,0.20231 0.09208,0.129929 0.207654,0.265149 0.342468,0.579521 0.464237,0.891555 0.09403,0.27764 0.192779,0.557332 0.250876,0.858255 0.0533,0.335319 0.05728,0.675511 0.06051,1.014223 0.0013,0.295198 1.82e-4,0.590406 -3.5e-4,0.885605 0.0087,0.391436 -0.08226,0.772337 -0.225793,1.133388 -0.169897,0.39823 -0.468806,0.687195 -0.810985,0.93707 -0.198439,0.119052 -0.380257,0.25022 -0.559556,0.384685 -0.119653,0.07772 -0.23512,0.145704 -0.35195,0.22591 -0.0055,0.0038 0.0249,-0.0099 0.01954,-0.0061 -0.101875,0.08316 -0.172711,0.112447 -0.10249,0.08169 -0.147024,0.137948 -0.323475,0.236327 -0.486547,0.352278 -0.0054,0.0038 0.0135,-0.0026 0.01889,-0.0063 0.02777,-0.02028 0.05326,-0.04368 0.07992,-0.06553 -0.254448,0.304985 -0.569361,0.522323 -0.928067,0.684098 -0.225272,0.07166 -0.513584,0.169181 -0.702422,0.22192 -0.25014,0.08101 -0.389394,0.163985 -0.688561,0.258042 -0.01627,0.0037 -0.48983,0.212413 -0.29355,0.133175 0.03712,-0.0266 0.06601,-0.08457 0.111351,-0.07996 0.03818,0.0038 -0.05177,0.05709 -0.08014,0.08311 -0.05925,0.05432 -0.12231,0.104284 -0.182444,0.157597 -0.130467,0.115695 -0.231962,0.182776 -0.382661,0.278787 -0.212708,0.14386 -0.443639,0.260224 -0.677129,0.366879 -0.222551,0.08131 -0.481268,0.182319 -0.682467,0.244858 -0.257176,0.08582 -0.455024,0.157085 -0.699282,0.239333 -0.227709,0.06178 -0.454161,0.127818 -0.671091,0.214753 -0.276953,0.08576 -0.532191,0.192416 -0.814266,0.269544 -0.345432,0.08209 -0.700967,0.09342 -1.054171,0.100331 -0.192753,0.0017 -0.407386,0.06452 -0.635433,0.09675 -0.320124,0.03982 -0.642989,0.04517 -0.965103,0.04879 -0.293826,0.002 -0.58766,0.0012 -0.881482,8.6e-4 -0.289453,-3.58e-4 -0.578912,-4.85e-4 -0.868378,-5.52e-4 -0.28954,-5.8e-5 -0.57907,-5e-5 -0.868613,-4.8e-5 -0.289608,2e-6 -0.579213,5e-6 -0.868824,6e-6 -0.289615,10e-7 -0.579232,10e-7 -0.868842,10e-7 -0.289608,0 -0.579225,0 -0.868833,0 -0.205915,0.0024 -0.472625,-0.01313 -0.616897,0.0207 -0.222508,0.05352 -0.484562,0.06943 -0.660472,0.118962 -0.238127,0.0746 -0.517916,0.08903 -0.722307,0.146351 -0.238835,0.0749 -0.519616,0.08868 -0.724952,0.146036 -0.26941,0.051 -0.412566,0.123079 -0.702468,0.19806 -0.06291,0.01211 -0.126254,0.02207 -0.188706,0.03638 -0.07899,0.01801 -0.152043,0.05704 -0.230468,0.07744 -0.170396,0.04422 -0.239151,0.03566 -0.158817,0.04336 -0.23013,0.09842 -0.493123,0.135826 -0.704749,0.204709 -0.276242,0.06338 -0.451111,0.144088 -0.742292,0.220201 -0.2507,0.05489 -0.507258,0.139649 -0.783313,0.187914 -0.367467,0.07793 -0.73181,0.01352 -1.095168,-0.04658 -0.379266,-0.05063 -0.742049,-0.18221 -1.077248,-0.364399 -0.237551,-0.100352 -0.460799,-0.230692 -0.691138,-0.346221 -0.30167,-0.114123 -0.570432,-0.297779 -0.823128,-0.495132 -0.0991,-0.07978 -0.265654,-0.166114 -0.406172,-0.248009 -0.223824,-0.123002 -0.439553,-0.260406 -0.65221,-0.402807 C 12.082443,30.088636 11.893128,29.970154 11.6969,29.85755 11.390553,29.716843 11.095762,29.545277 10.808936,29.36544 10.610736,29.243043 10.403299,29.138927 10.199824,29.027299 10.073005,28.984453 9.9540798,28.849546 9.8224124,28.847231 9.5967159,28.779289 9.3666549,28.719047 9.1395197,28.652992 8.8952177,28.604892 8.6735258,28.476498 8.4319523,28.422577 8.1522145,28.346258 7.8852968,28.232536 7.6107143,28.141746 7.3094586,28.016515 7.0212239,27.873629 6.7478281,27.695241 6.6012591,27.595146 6.4331785,27.510087 6.2730396,27.419292 6.0927157,27.325256 5.9068924,27.236178 5.7255519,27.1412 5.5002663,27.044973 5.2946824,26.91426 5.0910111,26.77769 4.8112514,26.570087 4.5719697,26.329121 4.3630848,26.051035 4.2512193,25.835274 4.134632,25.615305 4.0200951,25.404756 3.7831827,25.053171 3.6841547,24.647634 3.6317493,24.232815 c -0.0311,-0.32696 -0.029384,-0.655804 -0.029336,-0.983896 7.466e-4,-0.292034 0.00168,-0.584072 0.0022,-0.876108 4.175e-4,-0.290556 4.504e-4,-0.581126 4.801e-4,-0.871681 1.01e-5,-0.145478 7.4e-6,-0.290946 5.6e-6,-0.436428 -1.92e-5,-1.543405 2.1720702,-1.543437 2.1720893,-2.3e-5 l 0,0 c 1.8e-6,0.145563 4.7e-6,0.291121 -5.5e-6,0.436679 -3.03e-5,0.291721 -6.29e-5,0.583444 -4.835e-4,0.875165 -4.923e-4,0.290949 -0.00142,0.581906 -0.0022,0.872856 -6.7e-5,0.243222 -0.00193,0.486824 0.014601,0.729619 0.00931,0.105357 0.00173,0.17521 0.069622,0.263644 0.1198383,0.202584 0.2564355,0.421022 0.3445871,0.640668 0.00885,0.02207 -0.028314,-0.03814 -0.042457,-0.05723 -0.2048564,-0.202374 0.2582275,0.249232 0.1450553,0.142271 0.1264322,0.0863 0.2316874,0.158815 0.4766276,0.26603 0.1850878,0.08964 0.3953122,0.202299 0.6035084,0.310561 0.2081085,0.111589 0.4156744,0.236384 0.618853,0.370299 -0.1639049,-0.06863 0.2456829,0.12413 0.3188763,0.164787 0.2256842,0.08059 0.443242,0.169562 0.6744433,0.235346 0.2643753,0.07524 0.5091573,0.182842 0.7743585,0.249693 0.2272727,0.08457 0.4683102,0.127018 0.6948882,0.197951 0.30111,0.102024 0.545534,0.229116 0.816571,0.372466 0.235068,0.120775 0.469094,0.255453 0.69842,0.3918 0.256462,0.180883 0.536061,0.301324 0.812245,0.445111 0.231659,0.137912 0.459571,0.280374 0.686178,0.42614 0.186808,0.126984 0.376161,0.244187 0.574421,0.353337 0.229972,0.12829 0.458924,0.270919 0.667827,0.436517 -0.15042,-0.06558 0.446942,0.280997 0.418005,0.225883 0.248705,0.129136 0.493198,0.26283 0.749234,0.377055 0.0259,0.01481 0.09551,0.02035 0.0777,0.04438 -0.01961,0.02646 -0.128111,-0.02843 -0.09673,-0.01876 0.224151,0.06947 0.225019,0.06702 0.406925,0.09851 0.310792,0.05234 0.158727,0.06333 0.385775,0.046 0.210716,-0.02916 0.404724,-0.120598 0.614951,-0.153134 0.203853,-0.04049 0.392149,-0.144008 0.598106,-0.179026 0.214302,-0.06903 0.435235,-0.105188 0.645505,-0.184606 0.258203,-0.08254 0.521495,-0.15803 0.785121,-0.219289 0.221523,-0.04504 0.428288,-0.152569 0.653607,-0.185409 0.239111,-0.06386 0.481777,-0.09343 0.722682,-0.145414 0.23944,-0.06434 0.482519,-0.09398 0.723706,-0.146736 0.266231,-0.07112 0.536432,-0.102147 0.806315,-0.153244 0.344325,-0.06472 0.688916,-0.0714 1.038315,-0.06223 0.289611,0 0.579224,0 0.868836,0 0.289609,0 0.579221,0 0.868832,-10e-7 0.289608,0 0.579213,-3e-6 0.868827,-7e-6 0.28972,0 0.579439,-5e-6 0.869153,5.4e-5 0.290139,6.4e-5 0.580271,1.88e-4 0.870403,5.55e-4 0.284877,3.36e-4 0.569763,0.0011 0.854638,-7.26e-4 0.231878,-0.0025 0.464305,-0.0043 0.695158,-0.02884 0.296409,-0.03845 0.587003,-0.129606 0.888866,-0.116504 0.184774,-0.0033 0.370448,-0.0049 0.553691,-0.03189 0.190153,-0.03658 0.362168,-0.142489 0.551825,-0.183471 0.261315,-0.104478 0.529987,-0.190452 0.80177,-0.262245 0.201401,-0.06071 0.398314,-0.137546 0.597899,-0.203322 0.200221,-0.07024 0.408379,-0.129961 0.600902,-0.211669 0.170426,-0.07656 0.291024,-0.145042 0.446126,-0.250534 -0.139183,0.131506 0.408228,-0.35135 0.407743,-0.360384 0.283739,-0.174063 0.581347,-0.309526 0.896252,-0.417371 0.199314,-0.02807 0.373328,-0.180499 0.572955,-0.22046 0.195577,-0.06309 0.4625,-0.137125 0.623308,-0.191965 -0.02649,0.01932 -0.05242,0.03589 -0.07402,0.06134 -0.03796,0.0448 0.08661,-0.07934 0.132697,-0.115698 0.01407,-0.01109 -0.04923,0.05029 -0.03319,0.04234 0.01914,-0.0091 0.02894,-0.03158 0.04338,-0.04743 0.156905,-0.16563 0.473713,-0.447796 0.585517,-0.487692 0.189199,-0.163427 0.414274,-0.342048 0.611625,-0.44732 0.201236,-0.145591 0.399334,-0.294494 0.612032,-0.422414 0.03732,-0.02899 0.06488,-0.09025 0.111962,-0.08708 0.0394,0.0026 -0.05391,0.05823 -0.07761,0.08987 -0.01111,0.01486 -0.0372,0.06406 -0.0263,0.04906 0.02003,-0.02766 0.02295,-0.07283 0.05393,-0.08711 0.0242,-0.0111 -0.01856,0.0501 -0.02786,0.0752 0.01707,-0.04171 0.08096,-0.163545 0.06793,-0.320427 5.19e-4,-0.287121 0.0016,-0.574246 4.42e-4,-0.861371 -0.0019,-0.215174 -0.0024,-0.431031 -0.02578,-0.645187 -0.02267,-0.170544 -0.10627,-0.31986 -0.148939,-0.485281 -0.03674,-0.154903 -0.113661,-0.27293 -0.112517,-0.274731 -0.193567,-0.253262 -0.199356,-0.314953 -0.392649,-0.510978 -0.06537,-0.08933 -0.290674,-0.338478 -0.293486,-0.357624 -0.242225,-0.171599 -0.54437,-0.384128 -0.707825,-0.674517 -0.05482,-0.104207 -0.11755,-0.204595 -0.164522,-0.312617 -0.104485,-0.240358 -0.122552,-0.517718 -0.209803,-0.763334 -0.03321,-0.245278 -0.126529,-0.478001 -0.145165,-0.725893 -0.03439,-0.251665 -0.130715,-0.490865 -0.146308,-0.745827 -0.03846,-0.298165 -0.130074,-0.590358 -0.116972,-0.894077 -0.0037,-0.211853 -0.0066,-0.424653 -0.03689,-0.634725 -0.04641,-0.260288 -0.126039,-0.515426 -0.132399,-0.781892 -0.03058,-0.22619 -0.118113,-0.437887 -0.152311,-0.663349 -0.02494,-0.142455 -0.185001,-0.334756 0.04628,-0.103928 -0.174138,-0.126739 -0.360203,-0.25037 -0.546251,-0.367672 -0.09874,-0.112835 -0.425374,-0.231419 -0.559,-0.318256 -0.144917,-0.07996 -0.290379,-0.158903 -0.447309,-0.211335 -0.05564,-0.01133 -0.121431,-0.0012 -0.166536,-0.03588 -0.0072,-0.005 0.03531,-0.0066 0.02622,-0.0071 -0.126049,-0.0069 -0.253399,0.0085 -0.379475,0.0072 -0.181755,0.0086 -0.364698,0.0191 -0.539892,0.07322 -0.325995,0.09003 -0.658913,0.132027 -0.992318,0.184963 -0.318694,0.02912 -0.636703,0.02716 -0.956619,0.03009 -0.205981,0.0061 -0.413016,0.01325 -0.615852,0.05308 -0.322835,0.06526 -0.646129,0.104532 -0.976096,0.09249 -0.205147,0.0062 -0.411361,0.01349 -0.613267,0.05398 -0.338571,0.06944 -0.677802,0.108597 -1.023976,0.08975 -0.333376,-10e-4 -0.667867,-0.0012 -0.999196,-0.04316 -0.334518,-0.05373 -0.669963,-0.13257 -0.966833,-0.303738 -0.32453,-0.128076 -0.6374,-0.282985 -0.942871,-0.451938 -0.29775,-0.188555 -0.367,-0.260936 -0.584874,-0.328992 -0.12614,-0.05918 -0.201735,-0.103189 -0.312485,-0.11125 -0.02512,-0.0034 -0.09877,-0.0083 -0.0744,-0.01572 0.02426,-0.0067 0.09917,-0.01669 0.07396,-0.01592 -0.137138,0.0038 -0.270134,0.07314 -0.407269,0.07629 -0.324169,0.03196 -0.647553,0.02925 -0.973196,0.02901 -0.209637,0.0038 -0.420231,0.0064 -0.628037,0.03744 -0.264982,0.04851 -0.524653,0.13101 -0.796245,0.136998 -0.308418,0.04119 -0.611398,0.137142 -0.9261,0.115459 -0.323975,-0.0035 -0.648791,-0.0081 -0.970671,-0.04963 -0.239617,-0.03528 -0.464544,-0.102281 -0.674288,-0.113615 -0.299495,-0.02295 -0.598485,-0.05852 -0.888389,-0.141076 -0.264575,-0.03471 -0.596259,-0.07227 -0.874818,-0.171125 -0.197482,-0.06556 -0.404948,-0.09546 -0.606293,-0.157181 -0.242009,-0.0367 -0.475194,-0.106668 -0.710255,-0.125178 -0.275392,-0.02699 -0.552459,-0.06013 -0.821303,-0.126886 -0.32986,-0.01703 -0.659065,-0.04603 -0.984088,-0.107355 -0.12752,-0.02253 -0.267414,-0.02904 -0.418803,-0.0043 -0.125939,0.0076 -0.212019,0.111074 -0.335541,0.144772 -0.18034,0.0968 -0.36079,0.190434 -0.537174,0.292991 -0.245492,0.153462 -0.491769,0.304881 -0.751977,0.432703 -0.163225,0.02268 -0.367643,0.222287 -0.522965,0.284799 -0.153032,0.02718 -0.307024,0.229331 -0.459762,0.287872 -0.154862,0.109329 -0.345326,0.257531 -0.5681265,0.425716 -0.2032678,0.116919 -0.2142125,0.13253 -0.4268027,0.288526 -0.123621,0.09188 -0.2764245,0.207028 -0.4578705,0.402864 -0.2219844,0.184068 -0.4099913,0.405327 -0.6302947,0.591367 -0.2061427,0.216103 -0.4100733,0.434353 -0.6023593,0.663135 -0.1291396,0.13814 -0.2377071,0.253829 -0.3563329,0.384528 -0.00444,0.0048 0.0051,-0.01225 0.00766,-0.01829 -0.1310258,0.175542 -0.2707215,0.383252 -0.4372141,0.594862 0.034233,-0.07324 7.6e-6,0.0036 -0.077504,0.09863 -0.00593,0.0069 0.015646,-0.03394 0.010488,-0.02611 -0.078881,0.118216 -0.1293014,0.207707 -0.2049351,0.334254 -0.1103805,0.156875 -0.2297961,0.342967 -0.3509871,0.562967 -0.1066697,0.182246 -0.1955624,0.31243 -0.2635155,0.490118 C 6.0001926,19.1046 5.9048561,19.303094 5.8409889,19.514272 5.7152122,19.867545 5.6237684,20.231253 5.4897917,20.581864 5.11728,22.079233 3.0100441,21.549847 3.3825545,20.052518 z"
       inkscape:connector-curvature="0" />
    <path
       style="fill:none;stroke:#000000;stroke-width:0.3;stroke-linecap:butt;stroke-linejoin:miter;stroke-opacity:1;stroke-miterlimit:4;stroke-dasharray:none"
       d="m 3,8.4285714 7.285714,6.8571426"
       id="path6639"
       inkscape:path-effect="#path-effect6641"
       inkscape:original-d="m 3,8.4285714 7.285714,6.8571426"
       inkscape:connector-curvature="0" />
    <path
       style="fill:none;stroke:#000000;stroke-width:0.4;stroke-linecap:butt;stroke-linejoin:miter;stroke-opacity:1;stroke-miterlimit:4;stroke-dasharray:none"
       d="M 16.714286,23.142857 8,43"
       id="path6643"
       inkscape:path-effect="#path-effect6645"
       inkscape:original-d="M 16.714286,23.142857 8,43"
       inkscape:connector-curvature="0" />
    <path
       style="fill:none;stroke:#000000;stroke-width:0.4;stroke-linecap:butt;stroke-linejoin:miter;stroke-opacity:1;stroke-miterlimit:4;stroke-dasharray:none"
       d="m 21.428571,30 1.714286,11.714286"
       id="path6647"
       inkscape:path-effect="#path-effect6649"
       inkscape:original-d="m 21.428571,30 1.714286,11.714286"
       inkscape:connector-curvature="0" />
    <path
       style="fill:none;stroke:#000000;stroke-width:0.4;stroke-linecap:butt;stroke-linejoin:miter;stroke-opacity:1;stroke-miterlimit:4;stroke-dasharray:none"
       d="M 26.714286,16.428571 39.571429,5.2857143"
       id="path6651"
       inkscape:path-effect="#path-effect6653"
       inkscape:original-d="M 26.714286,16.428571 39.571429,5.2857143"
       inkscape:connector-curvature="0" />
    <text
       xml:space="preserve"
       style="font-size:4px;font-style:normal;font-weight:normal;line-height:125%;letter-spacing:0px;word-spacing:0px;fill:#000000;fill-opacity:1;stroke:none;font-family:Sans"
       x="1"
       y="7.7142859"
       id="text6655"
       sodipodi:linespacing="125%"><tspan
         sodipodi:role="line"
         id="tspan6657"
         x="1"
         y="7.7142859">1</tspan></text>
    <text
       xml:space="preserve"
       style="font-size:4px;font-style:normal;font-weight:normal;line-height:125%;letter-spacing:0px;word-spacing:0px;fill:#000000;fill-opacity:1;stroke:none;font-family:Sans"
       x="39.42857"
       y="4.8571429"
       id="text6659"
       sodipodi:linespacing="125%"><tspan
         sodipodi:role="line"
         id="tspan6661"
         x="39.42857"
         y="4.8571429">2</tspan></text>
    <text
       xml:space="preserve"
       style="font-size:4px;font-style:normal;font-weight:normal;line-height:125%;letter-spacing:0px;word-spacing:0px;fill:#000000;fill-opacity:1;stroke:none;font-family:Sans"
       x="6.8571429"
       y="44.57143"
       id="text6663"
       sodipodi:linespacing="125%"><tspan
         sodipodi:role="line"
         id="tspan6665"
         x="6.8571429"
         y="44.57143" /></text>
    <text
       xml:space="preserve"
       style="font-size:4px;font-style:normal;font-weight:normal;line-height:125%;letter-spacing:0px;word-spacing:0px;fill:#000000;fill-opacity:1;stroke:none;font-family:Sans"
       x="6.5714288"
       y="46.57143"
       id="text6667"
       sodipodi:linespacing="125%"><tspan
         sodipodi:role="line"
         id="tspan6669"
         x="6.5714288"
         y="46.57143">3</tspan></text>
    <text
       xml:space="preserve"
       style="font-size:4px;font-style:normal;font-weight:normal;line-height:125%;letter-spacing:0px;word-spacing:0px;fill:#000000;fill-opacity:1;stroke:none;font-family:Sans"
       x="23.714287"
       y="43.857143"
       id="text6671"
       sodipodi:linespacing="125%"><tspan
         sodipodi:role="line"
         id="tspan6673"
         x="23.714287"
         y="43.857143">4</tspan></text>
  </g>
</svg>
