<?xml version="1.0" encoding="UTF-8" standalone="no"?>
<!-- Created with Inkscape (http://www.inkscape.org/) -->

<svg
   xmlns:dc="http://purl.org/dc/elements/1.1/"
   xmlns:cc="http://creativecommons.org/ns#"
   xmlns:rdf="http://www.w3.org/1999/02/22-rdf-syntax-ns#"
   xmlns:svg="http://www.w3.org/2000/svg"
   xmlns="http://www.w3.org/2000/svg"
   xmlns:sodipodi="http://sodipodi.sourceforge.net/DTD/sodipodi-0.dtd"
   xmlns:inkscape="http://www.inkscape.org/namespaces/inkscape"
   width="64px"
   height="64px"
   id="svg4690"
   version="1.1"
   inkscape:version="0.48.5 r10040"
   sodipodi:docname="New document 17">
  <defs
     id="defs4692">
    <inkscape:path-effect
       effect="spiro"
       id="path-effect5254"
       is_visible="true" />
    <inkscape:path-effect
       effect="spiro"
       id="path-effect4742"
       is_visible="true" />
    <inkscape:path-effect
       effect="spiro"
       id="path-effect4734"
       is_visible="true" />
    <inkscape:path-effect
       effect="spiro"
       id="path-effect4730"
       is_visible="true" />
    <inkscape:path-effect
       effect="spiro"
       id="path-effect4726"
       is_visible="true" />
    <inkscape:path-effect
       effect="spiro"
       id="path-effect4722"
       is_visible="true" />
    <inkscape:path-effect
       effect="spiro"
       id="path-effect4718"
       is_visible="true" />
    <inkscape:path-effect
       effect="spiro"
       id="path-effect4714"
       is_visible="true" />
    <inkscape:path-effect
       effect="spiro"
       id="path-effect4708"
       is_visible="true" />
    <inkscape:path-effect
       effect="spiro"
       id="path-effect4704"
       is_visible="true" />
    <inkscape:path-effect
       effect="spiro"
       id="path-effect4700"
       is_visible="true" />
  </defs>
  <sodipodi:namedview
     id="base"
     pagecolor="#ffffff"
     bordercolor="#666666"
     borderopacity="1.0"
     inkscape:pageopacity="0.0"
     inkscape:pageshadow="2"
     inkscape:zoom="22"
     inkscape:cx="16.73112"
     inkscape:cy="39.924132"
     inkscape:current-layer="layer1"
     showgrid="true"
     inkscape:document-units="px"
     inkscape:grid-bbox="true"
     inkscape:window-width="1920"
     inkscape:window-height="1025"
     inkscape:window-x="-3"
     inkscape:window-y="-3"
     inkscape:window-maximized="1" />
  <metadata
     id="metadata4695">
    <rdf:RDF>
      <cc:Work
         rdf:about="">
        <dc:format>image/svg+xml</dc:format>
        <dc:type
           rdf:resource="http://purl.org/dc/dcmitype/StillImage" />
        <dc:title></dc:title>
      </cc:Work>
    </rdf:RDF>
  </metadata>
  <g
     id="layer1"
     inkscape:label="Layer 1"
     inkscape:groupmode="layer">
    <path
       style="fill:none;stroke:#000000;stroke-width:1px;stroke-linecap:butt;stroke-linejoin:miter;stroke-opacity:1"
       d="m 6.3636364,19.090909 6.7272726,0.181818"
       id="path4698"
       inkscape:path-effect="#path-effect4700"
       inkscape:original-d="m 6.3636364,19.090909 6.7272726,0.181818"
       inkscape:connector-curvature="0" />
    <path
       style="fill:none;stroke:#000000;stroke-width:1px;stroke-linecap:butt;stroke-linejoin:miter;stroke-opacity:1"
       d="m 9.6363636,19.272727 0,-5.454545 24.5454544,-0.363637 3.272727,-2.90909"
       id="path4702"
       inkscape:path-effect="#path-effect4704"
       inkscape:original-d="m 9.6363636,19.272727 0,-5.454545 24.5454544,-0.363637 3.272727,-2.90909"
       inkscape:connector-curvature="0" />
    <path
       style="fill:none;stroke:#000000;stroke-width:1px;stroke-linecap:butt;stroke-linejoin:miter;stroke-opacity:1"
       d="M 37.636364,14 48,13.818182 47.818182,26.727273"
       id="path4706"
       inkscape:path-effect="#path-effect4708"
       inkscape:original-d="M 37.636364,14 48,13.818182 47.818182,26.727273"
       inkscape:connector-curvature="0" />
    <path
       sodipodi:type="arc"
       style="fill:#ffffff;fill-opacity:1;stroke:#000000;stroke-width:0.80000001;stroke-linecap:butt;stroke-miterlimit:4;stroke-opacity:1;stroke-dasharray:none"
       id="path4710"
       sodipodi:cx="48.272728"
       sodipodi:cy="37.454544"
       sodipodi:rx="3.7272727"
       sodipodi:ry="4"
       d="m 52.000001,37.454544 a 3.7272727,4 0 1 1 -7.454546,0 3.7272727,4 0 1 1 7.454546,0 z"
       transform="translate(-0.36363636,-7.0909091)" />
    <path
       style="fill:none;stroke:#000000;stroke-width:1px;stroke-linecap:butt;stroke-linejoin:miter;stroke-opacity:1"
       d="m 44.909091,27.818182 5.636364,5.454545"
       id="path4712"
       inkscape:path-effect="#path-effect4714"
       inkscape:original-d="m 44.909091,27.818182 5.636364,5.454545"
       inkscape:connector-curvature="0" />
    <path
       style="fill:none;stroke:#000000;stroke-width:1px;stroke-linecap:butt;stroke-linejoin:miter;stroke-opacity:1"
       d="m 50.545455,27.272727 -5.272728,6.181818"
       id="path4716"
       inkscape:path-effect="#path-effect4718"
       inkscape:original-d="m 50.545455,27.272727 -5.272728,6.181818"
       inkscape:connector-curvature="0" />
    <path
       style="fill:none;stroke:#000000;stroke-width:1px;stroke-linecap:butt;stroke-linejoin:miter;stroke-opacity:1"
       d="m 48,34 -0.181818,6.545455 -37.090909,0.181818 0,-16"
       id="path4720"
       inkscape:path-effect="#path-effect4722"
       inkscape:original-d="m 48,34 -0.181818,6.545455 -37.090909,0.181818 0,-16"
       inkscape:connector-curvature="0" />
    <path
       style="fill:none;stroke:#000000;stroke-width:0.8771655px;stroke-linecap:butt;stroke-linejoin:miter;stroke-opacity:1"
       d="m 9.0909091,24.181818 3.0776769,0.181818"
       id="path4724"
       inkscape:path-effect="#path-effect4726"
       inkscape:original-d="m 9.0909091,24.181818 3.0776769,0.181818"
       inkscape:connector-curvature="0" />
    <path
       style="fill:none;stroke:#000000;stroke-width:0.4;stroke-linecap:butt;stroke-linejoin:miter;stroke-opacity:1;stroke-miterlimit:4;stroke-dasharray:none"
       d="M 3.2727273,15.636364 6,15.818182"
       id="path4728"
       inkscape:path-effect="#path-effect4730"
       inkscape:original-d="M 3.2727273,15.636364 6,15.818182"
       inkscape:connector-curvature="0" />
    <path
       style="fill:none;stroke:#000000;stroke-width:0.4;stroke-linecap:butt;stroke-linejoin:miter;stroke-opacity:1;stroke-miterlimit:4;stroke-dasharray:none"
       d="M 4.7272727,14.636364 4.5454546,16.954546"
       id="path4732"
       inkscape:path-effect="#path-effect4734"
       inkscape:original-d="M 4.7272727,14.636364 4.5454546,16.954546"
       inkscape:connector-curvature="0" />
    <path
       style="fill:none;stroke:#000000;stroke-width:0.4;stroke-linecap:butt;stroke-linejoin:miter;stroke-opacity:1;stroke-miterlimit:4;stroke-dasharray:none"
       d="m 3.5909091,25.727273 1.7272727,0.04545"
       id="path4740"
       inkscape:path-effect="#path-effect4742"
       inkscape:original-d="m 3.5909091,25.727273 1.7272727,0.04545"
       inkscape:connector-curvature="0" />
    <text
       xml:space="preserve"
       style="font-size:4px;font-style:normal;font-weight:normal;line-height:125%;letter-spacing:0px;word-spacing:0px;fill:#0000ff;fill-opacity:1;stroke:none;font-family:Sans"
       x="1.8181818"
       y="13.272727"
       id="text5256"
       sodipodi:linespacing="125%"><tspan
         sodipodi:role="line"
         id="tspan5258"
         x="1.8181818"
         y="13.272727">12v</tspan></text>
    <path
       sodipodi:type="arc"
       id="path5262"
       style="fill:#0000ff;stroke:none"
       sodipodi:cx="4.818182"
       sodipodi:cy="33.227272"
       sodipodi:rx="1.5"
       sodipodi:ry="1.5"
       d="m 6.318182,33.227272 a 1.5,1.5 0 1 1 -3,0 1.5,1.5 0 1 1 3,0 z"
       transform="matrix(0.22727273,0,0,0.28787878,7.5185952,8.0936633)" />
    <path
       sodipodi:type="arc"
       id="path5290"
       style="fill:#0000ff;stroke:none"
       sodipodi:cx="8.545455"
       sodipodi:cy="16.272726"
       sodipodi:rx="0.44999999"
       sodipodi:ry="0.44999999"
       d="m 8.995455,16.272726 a 0.44999999,0.44999999 0 1 1 -0.9,0 0.44999999,0.44999999 0 1 1 0.9,0 z" />
    <path
       sodipodi:type="arc"
       id="path5292"
       style="fill:#0000ff;stroke:none"
       sodipodi:cx="8.409091"
       sodipodi:cy="15.090909"
       sodipodi:rx="0.44999999"
       sodipodi:ry="0.44999999"
       d="m 8.859091,15.090909 a 0.44999999,0.44999999 0 1 1 -0.9,0 0.44999999,0.44999999 0 1 1 0.9,0 z" />
    <path
       sodipodi:type="arc"
       id="path5294"
       style="fill:#0000ff;stroke:none"
       sodipodi:cx="8.636364"
       sodipodi:cy="13.545454"
       sodipodi:rx="0.44999999"
       sodipodi:ry="0.44999999"
       d="m 9.086364,13.545454 a 0.44999999,0.44999999 0 1 1 -0.9,0 0.44999999,0.44999999 0 1 1 0.9,0 z" />
    <path
       sodipodi:type="arc"
       id="path5296"
       style="fill:#0000ff;stroke:none"
       sodipodi:cx="9.909091"
       sodipodi:cy="12.454545"
       sodipodi:rx="0.44999999"
       sodipodi:ry="0.44999999"
       d="m 10.359091,12.454545 a 0.44999999,0.44999999 0 1 1 -0.9,0 0.44999999,0.44999999 0 1 1 0.9,0 z" />
    <path
       sodipodi:type="arc"
       id="path5298"
       style="fill:#0000ff;stroke:none"
       sodipodi:cx="11.454545"
       sodipodi:cy="12.318182"
       sodipodi:rx="0.44999999"
       sodipodi:ry="0.44999999"
       d="m 11.904545,12.318182 a 0.44999999,0.44999999 0 1 1 -0.9,0 0.44999999,0.44999999 0 1 1 0.9,0 z" />
    <path
       sodipodi:type="arc"
       id="path5300"
       style="fill:#0000ff;stroke:none"
       sodipodi:cx="16.090908"
       sodipodi:cy="12.227273"
       sodipodi:rx="0.44999999"
       sodipodi:ry="0.44999999"
       d="m 16.540908,12.227273 a 0.44999999,0.44999999 0 1 1 -0.9,0 0.44999999,0.44999999 0 1 1 0.9,0 z" />
    <path
       sodipodi:type="arc"
       id="path5302"
       style="fill:#0000ff;stroke:none"
       sodipodi:cx="12.863636"
       sodipodi:cy="12.136364"
       sodipodi:rx="0.44999999"
       sodipodi:ry="0.44999999"
       d="m 13.313636,12.136364 a 0.44999999,0.44999999 0 1 1 -0.9,0 0.44999999,0.44999999 0 1 1 0.9,0 z" />
    <path
       sodipodi:type="arc"
       id="path5304"
       style="fill:#0000ff;stroke:none"
       sodipodi:cx="14.272727"
       sodipodi:cy="12.636364"
       sodipodi:rx="0.44999999"
       sodipodi:ry="0.44999999"
       d="m 14.722727,12.636364 a 0.44999999,0.44999999 0 1 1 -0.9,0 0.44999999,0.44999999 0 1 1 0.9,0 z" />
    <path
       sodipodi:type="arc"
       id="path5306"
       style="fill:#0000ff;stroke:none"
       sodipodi:cx="18"
       sodipodi:cy="12"
       sodipodi:rx="0.44999999"
       sodipodi:ry="0.44999999"
       d="m 18.45,12 a 0.44999999,0.44999999 0 1 1 -0.9,0 0.44999999,0.44999999 0 1 1 0.9,0 z" />
    <path
       sodipodi:type="arc"
       id="path5308"
       style="fill:#0000ff;stroke:none"
       sodipodi:cx="19.409092"
       sodipodi:cy="12.454545"
       sodipodi:rx="0.44999999"
       sodipodi:ry="0.44999999"
       d="m 19.859092,12.454545 a 0.44999999,0.44999999 0 1 1 -0.9,0 0.44999999,0.44999999 0 1 1 0.9,0 z" />
    <path
       sodipodi:type="arc"
       id="path5310"
       style="fill:#0000ff;stroke:none"
       sodipodi:cx="20.636364"
       sodipodi:cy="12.227273"
       sodipodi:rx="0.44999999"
       sodipodi:ry="0.44999999"
       d="m 21.086364,12.227273 a 0.44999999,0.44999999 0 1 1 -0.9,0 0.44999999,0.44999999 0 1 1 0.9,0 z" />
    <path
       sodipodi:type="arc"
       id="path5312"
       style="fill:#0000ff;stroke:none"
       sodipodi:cx="22.409092"
       sodipodi:cy="12.272727"
       sodipodi:rx="0.44999999"
       sodipodi:ry="0.44999999"
       d="m 22.859092,12.272727 a 0.44999999,0.44999999 0 1 1 -0.9,0 0.44999999,0.44999999 0 1 1 0.9,0 z" />
    <path
       sodipodi:type="arc"
       id="path5314"
       style="fill:#0000ff;stroke:none"
       sodipodi:cx="25.272726"
       sodipodi:cy="12"
       sodipodi:rx="0.44999999"
       sodipodi:ry="0.44999999"
       d="m 25.722726,12 a 0.44999999,0.44999999 0 1 1 -0.9,0 0.44999999,0.44999999 0 1 1 0.9,0 z" />
    <path
       sodipodi:type="arc"
       id="path5316"
       style="fill:#0000ff;stroke:none"
       sodipodi:cx="26.5"
       sodipodi:cy="12.090909"
       sodipodi:rx="0.44999999"
       sodipodi:ry="0.44999999"
       d="m 26.95,12.090909 a 0.44999999,0.44999999 0 1 1 -0.9,0 0.44999999,0.44999999 0 1 1 0.9,0 z" />
    <path
       sodipodi:type="arc"
       id="path5318"
       style="fill:#0000ff;stroke:none"
       sodipodi:cx="23.772726"
       sodipodi:cy="12.181818"
       sodipodi:rx="0.44999999"
       sodipodi:ry="0.44999999"
       d="m 24.222726,12.181818 a 0.44999999,0.44999999 0 1 1 -0.9,0 0.44999999,0.44999999 0 1 1 0.9,0 z" />
    <path
       sodipodi:type="arc"
       id="path5320"
       style="fill:#0000ff;stroke:none"
       sodipodi:cx="27.545456"
       sodipodi:cy="12.045454"
       sodipodi:rx="0.44999999"
       sodipodi:ry="0.44999999"
       d="m 27.995456,12.045454 a 0.44999999,0.44999999 0 1 1 -0.9,0 0.44999999,0.44999999 0 1 1 0.9,0 z" />
    <path
       sodipodi:type="arc"
       id="path5322"
       style="fill:#0000ff;stroke:none"
       sodipodi:cx="29"
       sodipodi:cy="11.954545"
       sodipodi:rx="0.44999999"
       sodipodi:ry="0.44999999"
       d="m 29.45,11.954545 a 0.44999999,0.44999999 0 1 1 -0.9,0 0.44999999,0.44999999 0 1 1 0.9,0 z" />
    <path
       sodipodi:type="arc"
       id="path5324"
       style="fill:#0000ff;stroke:none"
       sodipodi:cx="29.954544"
       sodipodi:cy="12.272727"
       sodipodi:rx="0.44999999"
       sodipodi:ry="0.44999999"
       d="m 30.404544,12.272727 a 0.44999999,0.44999999 0 1 1 -0.9,0 0.44999999,0.44999999 0 1 1 0.9,0 z" />
    <path
       sodipodi:type="arc"
       id="path5326"
       style="fill:#0000ff;stroke:none"
       sodipodi:cx="30.954544"
       sodipodi:cy="12.272727"
       sodipodi:rx="0.44999999"
       sodipodi:ry="0.44999999"
       d="m 31.404544,12.272727 a 0.44999999,0.44999999 0 1 1 -0.9,0 0.44999999,0.44999999 0 1 1 0.9,0 z" />
    <path
       sodipodi:type="arc"
       id="path5328"
       style="fill:#0000ff;stroke:none"
       sodipodi:cx="32.227272"
       sodipodi:cy="12.090909"
       sodipodi:rx="0.44999999"
       sodipodi:ry="0.44999999"
       d="m 32.677272,12.090909 a 0.44999999,0.44999999 0 1 1 -0.9,0 0.44999999,0.44999999 0 1 1 0.9,0 z" />
    <path
       sodipodi:type="arc"
       id="path5330"
       style="fill:#0000ff;stroke:none"
       sodipodi:cx="33.363636"
       sodipodi:cy="12.045454"
       sodipodi:rx="0.44999999"
       sodipodi:ry="0.44999999"
       d="m 33.813636,12.045454 a 0.44999999,0.44999999 0 1 1 -0.9,0 0.44999999,0.44999999 0 1 1 0.9,0 z"
       transform="translate(-0.09090909,-0.31818182)" />
    <path
       sodipodi:type="arc"
       id="path5332"
       style="fill:#0000ff;stroke:none"
       sodipodi:cx="34.454544"
       sodipodi:cy="11.181818"
       sodipodi:rx="0.44999999"
       sodipodi:ry="0.44999999"
       d="m 34.904544,11.181818 a 0.44999999,0.44999999 0 1 1 -0.9,0 0.44999999,0.44999999 0 1 1 0.9,0 z" />
    <path
       sodipodi:type="arc"
       id="path5334"
       style="fill:#0000ff;stroke:none"
       sodipodi:cx="35.090908"
       sodipodi:cy="10.772727"
       sodipodi:rx="0.44999999"
       sodipodi:ry="0.44999999"
       d="m 35.540908,10.772727 a 0.44999999,0.44999999 0 1 1 -0.9,0 0.44999999,0.44999999 0 1 1 0.9,0 z" />
    <path
       sodipodi:type="arc"
       id="path5336"
       style="fill:#0000ff;stroke:none"
       sodipodi:cx="35.863636"
       sodipodi:cy="10.045454"
       sodipodi:rx="0.44999999"
       sodipodi:ry="0.44999999"
       d="m 36.313636,10.045454 a 0.44999999,0.44999999 0 1 1 -0.9,0 0.44999999,0.44999999 0 1 1 0.9,0 z" />
  </g>
</svg>
