<?xml version="1.0" encoding="UTF-8" standalone="no"?>
<!-- Created with Inkscape (http://www.inkscape.org/) -->

<svg
   xmlns:dc="http://purl.org/dc/elements/1.1/"
   xmlns:cc="http://creativecommons.org/ns#"
   xmlns:rdf="http://www.w3.org/1999/02/22-rdf-syntax-ns#"
   xmlns:svg="http://www.w3.org/2000/svg"
   xmlns="http://www.w3.org/2000/svg"
   xmlns:sodipodi="http://sodipodi.sourceforge.net/DTD/sodipodi-0.dtd"
   xmlns:inkscape="http://www.inkscape.org/namespaces/inkscape"
   width="48"
   height="11"
   id="svg2997"
   version="1.1"
   inkscape:version="0.48.5 r10040"
   sodipodi:docname="DC.svg">
  <defs
     id="defs2999">
    <inkscape:path-effect
       effect="spiro"
       id="path-effect3092"
       is_visible="true" />
    <inkscape:path-effect
       effect="spiro"
       id="path-effect3035"
       is_visible="true" />
    <inkscape:path-effect
       effect="spiro"
       id="path-effect3031"
       is_visible="true" />
    <inkscape:path-effect
       effect="spiro"
       id="path-effect3027"
       is_visible="true" />
    <inkscape:path-effect
       effect="spiro"
       id="path-effect3023"
       is_visible="true" />
    <inkscape:path-effect
       effect="spiro"
       id="path-effect3019"
       is_visible="true" />
    <inkscape:path-effect
       effect="spiro"
       id="path-effect3015"
       is_visible="true" />
    <inkscape:path-effect
       effect="spiro"
       id="path-effect3011"
       is_visible="true" />
    <inkscape:path-effect
       effect="spiro"
       id="path-effect3007"
       is_visible="true" />
  </defs>
  <sodipodi:namedview
     id="base"
     pagecolor="#ffffff"
     bordercolor="#666666"
     borderopacity="1.0"
     inkscape:pageopacity="0.0"
     inkscape:pageshadow="2"
     inkscape:zoom="7"
     inkscape:cx="2.5877035"
     inkscape:cy="23.41898"
     inkscape:current-layer="layer1"
     showgrid="true"
     inkscape:grid-bbox="true"
     inkscape:document-units="px"
     inkscape:window-width="1920"
     inkscape:window-height="1026"
     inkscape:window-x="-3"
     inkscape:window-y="-3"
     inkscape:window-maximized="1"
     inkscape:snap-smooth-nodes="true" />
  <metadata
     id="metadata3002">
    <rdf:RDF>
      <cc:Work
         rdf:about="">
        <dc:format>image/svg+xml</dc:format>
        <dc:type
           rdf:resource="http://purl.org/dc/dcmitype/StillImage" />
        <dc:title></dc:title>
      </cc:Work>
    </rdf:RDF>
  </metadata>
  <g
     id="layer1"
     inkscape:label="Layer 1"
     inkscape:groupmode="layer"
     transform="translate(0,-37)">
    <path
       style="fill:none;stroke:#000000;stroke-width:1px;stroke-linecap:butt;stroke-linejoin:miter;stroke-opacity:1"
       d="m 6.8571429,41.428571 c -0.3380483,0.332503 -0.5334414,0.805478 -0.5286303,1.279621 0.00481,0.474143 0.2097616,0.943056 0.5544875,1.268631 0.3447258,0.325574 0.8245757,0.503417 1.2982199,0.481149 0.4736443,-0.02227 0.9346919,-0.244348 1.247351,-0.600829 0.3707217,-0.422682 0.5182803,-0.991845 0.795251,-1.481112 0.138485,-0.244634 0.314378,-0.474137 0.546869,-0.632162 0.116245,-0.07901 0.245896,-0.139269 0.382835,-0.170947 0.136939,-0.03168 0.281238,-0.03433 0.417903,-0.0015 0.247348,0.05944 0.455772,0.231205 0.609547,0.433857 0.153774,0.202651 0.25987,0.436586 0.367627,0.667025 0.107758,0.23044 0.220177,0.462243 0.384027,0.656838 0.16385,0.194595 0.386704,0.35105 0.638799,0.385137 0.145776,0.01971 0.295807,-0.0023 0.433391,-0.05439 0.137584,-0.05206 0.263034,-0.133474 0.373234,-0.230918 0.220399,-0.194887 0.377934,-0.449687 0.525,-0.704498 0.147065,-0.254811 0.28883,-0.516258 0.486186,-0.73445 0.09868,-0.109096 0.211075,-0.20672 0.338078,-0.280945 0.127004,-0.07423 0.269012,-0.12465 0.415539,-0.137653 0.150225,-0.01333 0.302764,0.01294 0.443406,0.0674 0.140643,0.05445 0.26968,0.136563 0.384748,0.234055 0.230136,0.194983 0.402666,0.447999 0.566458,0.701284 0.163792,0.253285 0.323651,0.512534 0.535286,0.727455 0.211636,0.214922 0.48403,0.384984 0.784388,0.412667 0.159812,0.01473 0.322176,-0.01146 0.472823,-0.0668 0.150648,-0.05533 0.289875,-0.139313 0.415381,-0.239337 0.251012,-0.20005 0.445377,-0.460996 0.633258,-0.721241 0.187881,-0.260245 0.374543,-0.525494 0.614601,-0.738564 0.240058,-0.213071 0.542991,-0.372384 0.863937,-0.376918 0.176902,-0.0025 0.3529,0.04221 0.512683,0.118173 0.159783,0.07596 0.303829,0.182572 0.431882,0.30465 0.256104,0.244157 0.447142,0.546845 0.645246,0.840029 0.198103,0.293183 0.410772,0.585028 0.69647,0.793782 0.14285,0.104377 0.30321,0.186602 0.474715,0.230033 0.171505,0.04343 0.354452,0.04711 0.524718,-9.53e-4 0.161311,-0.04554 0.30793,-0.136389 0.430004,-0.251249 0.122074,-0.114859 0.220392,-0.25327 0.300807,-0.400336 0.160829,-0.294131 0.250613,-0.62073 0.369516,-0.934164 0.118904,-0.313435 0.275412,-0.625339 0.534276,-0.838338 0.129432,-0.1065 0.283315,-0.185609 0.448159,-0.215961 0.164844,-0.03035 0.340673,-0.01007 0.488667,0.06862 0.10724,0.05702 0.197756,0.143118 0.266898,0.242975 0.06914,0.09986 0.117419,0.213237 0.149517,0.330376 0.0642,0.234279 0.06426,0.480628 0.06573,0.723539 0.0015,0.242911 0.0054,0.489732 0.07667,0.721949 0.03565,0.116109 0.08828,0.227711 0.161903,0.324308 0.07363,0.0966 0.168772,0.177889 0.279282,0.228282 0.160797,0.07332 0.34882,0.07771 0.518124,0.02703 0.169305,-0.05068 0.320269,-0.153863 0.441507,-0.282446 0.242476,-0.257167 0.363559,-0.603254 0.465419,-0.941711 0.101861,-0.338458 0.194576,-0.688093 0.396368,-0.978281 0.100896,-0.145094 0.229068,-0.2733 0.383009,-0.360101 0.153941,-0.0868 0.334648,-0.130448 0.509859,-0.10735 0.153918,0.02029 0.299004,0.09127 0.417893,0.191107 0.118889,0.09984 0.212425,0.227677 0.283198,0.365858 0.141544,0.276361 0.192425,0.588622 0.248324,0.894049 0.0559,0.305427 0.121604,0.61724 0.287263,0.879857 0.08283,0.131309 0.190556,0.248423 0.321729,0.331467 0.131173,0.08304 0.286519,0.13079 0.441592,0.123376 0.160551,-0.0077 0.315525,-0.07424 0.440923,-0.174789 0.125398,-0.100552 0.222275,-0.233798 0.292569,-0.378346 0.140589,-0.289096 0.175773,-0.616178 0.216021,-0.935117 0.04025,-0.318939 0.09092,-0.646593 0.256672,-0.922035 0.08288,-0.13772 0.194548,-0.259949 0.332225,-0.342898 0.137677,-0.08295 0.302221,-0.12486 0.46159,-0.103958 0.123474,0.01619 0.240798,0.06938 0.339582,0.145206 0.09878,0.07583 0.179474,0.173756 0.242385,0.281228 0.125822,0.214944 0.180092,0.46353 0.222165,0.709014 0.04207,0.245483 0.07437,0.494998 0.162298,0.728022 0.04397,0.116512 0.101915,0.228386 0.178559,0.326537 0.07664,0.09815 0.172439,0.182396 0.283583,0.238565 0.140233,0.07087 0.302211,0.09509 0.458288,0.07698 0.156077,-0.01811 0.306147,-0.07753 0.437403,-0.163902 0.262512,-0.172737 0.444415,-0.446396 0.568702,-0.73502 0.124287,-0.288624 0.197245,-0.59613 0.28776,-0.897058 C 38.699812,41.551501 38.810955,41.251024 39,41 c 0.163592,-0.217226 0.38335,-0.391781 0.631962,-0.50197 0.248612,-0.110189 0.525532,-0.155772 0.796346,-0.131083 0.270813,0.02469 0.534926,0.119597 0.759513,0.272927 0.224588,0.15333 0.409158,0.364746 0.530771,0.607973 0.121614,0.243228 0.180005,0.517733 0.167916,0.789401 -0.01209,0.271668 -0.09463,0.539902 -0.237367,0.771367 -0.142737,0.231464 -0.345355,0.425651 -0.582674,0.558427 -0.237319,0.132776 -0.508817,0.203849 -0.780753,0.204387"
       id="path3090"
       inkscape:path-effect="#path-effect3092"
       inkscape:original-d="m 6.8571429,41.428571 c 0.8571427,0.809524 1.3929769,2.392861 2.5714281,2.428572 1.043888,0.03163 1.099111,-2.249723 2.142858,-2.285714 0.976481,-0.03367 1.022939,2.142857 2,2.142857 1.11575,0 1.455678,-2.142857 2.571428,-2.142857 1.152735,0 1.561551,2.142857 2.714286,2.142857 1.228904,0 1.771414,-2.17078 3,-2.142857 1.333839,0.03031 1.953115,2.350719 3.285714,2.285714 1.210744,-0.05906 1.359246,-2.571429 2.571429,-2.571429 0.919676,0 0.08049,2.589112 1,2.571429 1.26257,-0.02428 1.452062,-2.681106 2.714286,-2.642857 1.14258,0.03462 0.857076,2.806123 1.999999,2.785714 1.162344,-0.02076 0.846448,-2.712949 2,-2.857143 0.931942,-0.116493 0.490128,2.466109 1.428572,2.428572 C 37.972002,43.526834 37.88425,41 39,41 c 0.958315,0 0.857143,1.714286 1.285714,2.571429"
       inkscape:connector-curvature="0"
       sodipodi:nodetypes="cssssssssssssssc" />
  </g>
</svg>
