<?xml version="1.0" encoding="UTF-8" standalone="no"?>
<!-- Created with Inkscape (http://www.inkscape.org/) -->

<svg
   xmlns:dc="http://purl.org/dc/elements/1.1/"
   xmlns:cc="http://creativecommons.org/ns#"
   xmlns:rdf="http://www.w3.org/1999/02/22-rdf-syntax-ns#"
   xmlns:svg="http://www.w3.org/2000/svg"
   xmlns="http://www.w3.org/2000/svg"
   xmlns:sodipodi="http://sodipodi.sourceforge.net/DTD/sodipodi-0.dtd"
   xmlns:inkscape="http://www.inkscape.org/namespaces/inkscape"
   width="48px"
   height="48px"
   id="svg3263"
   version="1.1"
   inkscape:version="0.48.5 r10040"
   sodipodi:docname="New document 12">
  <defs
     id="defs3265">
    <inkscape:path-effect
       effect="spiro"
       id="path-effect3295"
       is_visible="true" />
    <inkscape:path-effect
       effect="spiro"
       id="path-effect3291"
       is_visible="true" />
    <inkscape:path-effect
       effect="spiro"
       id="path-effect3283"
       is_visible="true" />
    <inkscape:path-effect
       effect="spiro"
       id="path-effect3279"
       is_visible="true" />
  </defs>
  <sodipodi:namedview
     id="base"
     pagecolor="#ffffff"
     bordercolor="#666666"
     borderopacity="1.0"
     inkscape:pageopacity="0.0"
     inkscape:pageshadow="2"
     inkscape:zoom="19.79899"
     inkscape:cx="21.037848"
     inkscape:cy="29.167069"
     inkscape:current-layer="layer1"
     showgrid="true"
     inkscape:grid-bbox="true"
     inkscape:document-units="px"
     inkscape:snap-global="true"
     inkscape:window-width="1920"
     inkscape:window-height="1025"
     inkscape:window-x="-3"
     inkscape:window-y="-3"
     inkscape:window-maximized="1" />
  <metadata
     id="metadata3268">
    <rdf:RDF>
      <cc:Work
         rdf:about="">
        <dc:format>image/svg+xml</dc:format>
        <dc:type
           rdf:resource="http://purl.org/dc/dcmitype/StillImage" />
        <dc:title></dc:title>
      </cc:Work>
    </rdf:RDF>
  </metadata>
  <g
     id="layer1"
     inkscape:label="Layer 1"
     inkscape:groupmode="layer">
    <path
       style="fill:none;stroke:#000000;stroke-width:1px;stroke-linecap:butt;stroke-linejoin:miter;stroke-opacity:1"
       d="M 6.8571429,23.571429 14.285714,23.714286 21,18.142857"
       id="path3271"
       inkscape:connector-curvature="0" />
    <path
       style="fill:none;stroke:#000000;stroke-width:1px;stroke-linecap:butt;stroke-linejoin:miter;stroke-opacity:1"
       d="m 15.285714,18.285714 2.285715,2.571429"
       id="path3273"
       inkscape:connector-curvature="0" />
    <path
       style="fill:none;stroke:#000000;stroke-width:1px;stroke-linecap:butt;stroke-linejoin:miter;stroke-opacity:1"
       d="m 22,24.285714 10.857143,0"
       id="path3275"
       inkscape:connector-curvature="0" />
    <path
       style="fill:none;stroke:#000000;stroke-width:1px;stroke-linecap:butt;stroke-linejoin:miter;stroke-opacity:1"
       d="m 14.714286,15.428571 0.142857,1.285715"
       id="path3277"
       inkscape:path-effect="#path-effect3279"
       inkscape:original-d="m 14.714286,15.428571 0.142857,1.285715"
       inkscape:connector-curvature="0" />
    <path
       style="fill:none;stroke:#000000;stroke-width:1px;stroke-linecap:butt;stroke-linejoin:miter;stroke-opacity:1"
       d="m 14.857143,12.285714 0,1.428572"
       id="path3281"
       inkscape:path-effect="#path-effect3283"
       inkscape:original-d="m 14.857143,12.285714 0,1.428572"
       inkscape:connector-curvature="0" />
    <path
       style="fill:none;stroke:#000000;stroke-width:1px;stroke-linecap:butt;stroke-linejoin:miter;stroke-opacity:1"
       d="m 10.428571,8.2857143 5,-2"
       id="path3289"
       inkscape:path-effect="#path-effect3291"
       inkscape:original-d="m 10.428571,8.2857143 5,-2"
       inkscape:connector-curvature="0" />
    <path
       style="fill:none;stroke:#000000;stroke-width:1px;stroke-linecap:butt;stroke-linejoin:miter;stroke-opacity:1"
       d="m 12.857143,7.5714286 0.714286,1.1428571"
       id="path3293"
       inkscape:path-effect="#path-effect3295"
       inkscape:original-d="m 12.857143,7.5714286 0.714286,1.1428571"
       inkscape:connector-curvature="0" />
    <path
       style="fill:#000000;fill-opacity:1;stroke:#000000;stroke-width:0.1;stroke-linecap:butt;stroke-miterlimit:4;stroke-opacity:1;stroke-dasharray:none"
       id="path3353"
       d="m 13.558751,8.4242114 c 0.158794,-0.03444 0.313379,-0.083942 0.472888,-0.1160076 0.09084,-0.027077 0.184698,-0.040947 0.274387,-0.07029 0.0795,-0.015156 0.127354,-0.03842 0.198374,-0.071024 0.134517,-0.066018 0.280273,-0.061777 0.425112,-0.052362 0.115852,0.018709 0.230298,0.047625 0.340354,0.088443 0.116508,0.034052 0.216829,0.1021839 0.310555,0.1767796 0.05212,0.05232 0.111064,0.094299 0.168678,0.1393782 0.07503,0.054662 0.144037,0.1174022 0.210378,0.1821975 0.122655,0.093823 0.177443,0.2435684 0.209459,0.3882747 0.0221,0.134913 0.02329,0.2713583 0.01052,0.4070103 -0.01993,0.1048149 -0.03638,0.2096182 -0.06744,0.3118661 -0.01589,0.078414 -0.03829,0.1550283 -0.05928,0.2322586 -0.01255,0.06038 -0.0137,0.122422 -0.01557,0.183846 -0.0097,0.149791 -0.0567,0.286441 -0.127651,0.417183 -0.05813,0.105757 -0.145968,0.180276 -0.237166,0.255709 -0.08306,0.05488 -0.169752,0.104156 -0.257387,0.151709 -0.09093,0.04295 -0.181533,0.08611 -0.274558,0.12487 -0.105077,0.04238 -0.208661,0.08314 -0.320037,0.10782 -0.09712,0.01967 -0.220305,0.0209 -0.304314,0.02685 -0.529912,0.07863 -0.641116,-0.670776 -0.111204,-0.749409 l 0,0 c 0.08744,-0.01003 0.174624,-0.01187 0.262224,-0.01938 0.0659,-0.0094 0.121006,-0.04893 0.184804,-0.0664 0.07052,-0.02843 0.139435,-0.06061 0.207705,-0.09344 0.03923,-0.01958 0.134125,-0.08035 0.146221,-0.07954 0.13804,-0.10599 -0.0629,0.07013 0.04839,-0.04179 0.006,-0.0061 -0.0509,0.08474 0.0097,-0.01337 -0.02348,0.06374 0.01149,-0.0221 0.01608,-0.04516 0.0041,-0.122136 0.0112,-0.2449213 0.04317,-0.3635198 0.02426,-0.085479 0.0432,-0.1579878 0.06473,-0.2508494 0.01525,-0.048572 0.02523,-0.1222581 0.04067,-0.1895718 0.01144,0.041862 -0.0047,-0.1665318 -0.003,-0.160815 0.0067,0.00419 0.09908,0.1015788 -0.0078,-0.00456 -0.04537,-0.041662 -0.09059,-0.08631 -0.14375,-0.1216866 -0.06537,-0.059928 -0.137566,-0.1039694 -0.18831,-0.1557383 0.04717,0.024916 -0.0473,-0.039507 -0.08011,-0.040514 -0.03518,-0.013164 -0.07005,-0.021263 -0.123838,-0.035975 -0.0067,-0.00183 -0.0184,7.702e-4 -0.0199,-0.00599 -0.0013,-0.00601 0.01231,-3.159e-4 0.01846,-4.739e-4 -0.105585,-0.00689 -0.09155,0.01066 -0.04051,-0.021584 0.006,-0.0038 -0.01346,0.00459 -0.02019,0.00688 -0.09078,0.041324 -0.18163,0.082104 -0.279809,0.1027346 -0.118639,0.038248 -0.240836,0.061059 -0.361294,0.092883 -0.153839,0.029565 -0.301634,0.082378 -0.455364,0.1123303 -0.522958,0.1162127 -0.687307,-0.6233607 -0.16435,-0.7395734 z"
       inkscape:connector-curvature="0" />
  </g>
</svg>
