<?xml version="1.0" encoding="UTF-8" standalone="no"?>
<!-- Created with Inkscape (http://www.inkscape.org/) -->

<svg
   xmlns:dc="http://purl.org/dc/elements/1.1/"
   xmlns:cc="http://creativecommons.org/ns#"
   xmlns:rdf="http://www.w3.org/1999/02/22-rdf-syntax-ns#"
   xmlns:svg="http://www.w3.org/2000/svg"
   xmlns="http://www.w3.org/2000/svg"
   xmlns:sodipodi="http://sodipodi.sourceforge.net/DTD/sodipodi-0.dtd"
   xmlns:inkscape="http://www.inkscape.org/namespaces/inkscape"
   width="48px"
   height="48px"
   id="svg3081"
   version="1.1"
   inkscape:version="0.48.5 r10040"
   sodipodi:docname="New document 7">
  <defs
     id="defs3083">
    <inkscape:path-effect
       effect="spiro"
       id="path-effect3123"
       is_visible="true" />
    <inkscape:path-effect
       effect="spiro"
       id="path-effect3111"
       is_visible="true" />
  </defs>
  <sodipodi:namedview
     id="base"
     pagecolor="#ffffff"
     bordercolor="#666666"
     borderopacity="1.0"
     inkscape:pageopacity="0.0"
     inkscape:pageshadow="2"
     inkscape:zoom="7"
     inkscape:cx="24"
     inkscape:cy="24"
     inkscape:current-layer="layer1"
     showgrid="true"
     inkscape:grid-bbox="true"
     inkscape:document-units="px"
     inkscape:object-nodes="true"
     inkscape:snap-nodes="false"
     inkscape:window-width="1920"
     inkscape:window-height="1025"
     inkscape:window-x="-3"
     inkscape:window-y="-3"
     inkscape:window-maximized="1" />
  <metadata
     id="metadata3086">
    <rdf:RDF>
      <cc:Work
         rdf:about="">
        <dc:format>image/svg+xml</dc:format>
        <dc:type
           rdf:resource="http://purl.org/dc/dcmitype/StillImage" />
        <dc:title></dc:title>
      </cc:Work>
    </rdf:RDF>
  </metadata>
  <g
     id="layer1"
     inkscape:label="Layer 1"
     inkscape:groupmode="layer">
    <path
       style="fill:none;stroke:#000000;stroke-width:1px;stroke-linecap:butt;stroke-linejoin:miter;stroke-opacity:1"
       d="M 2.8571429,8.7142857 9,8.5714286"
       id="path3089"
       inkscape:connector-curvature="0" />
    <path
       style="fill:none;stroke:#000000;stroke-width:1px;stroke-linecap:butt;stroke-linejoin:miter;stroke-opacity:1"
       d="M 5.5714286,6.2857143 5.7142857,10.857143"
       id="path3091"
       inkscape:connector-curvature="0" />
    <path
       style="fill:none;stroke:#000000;stroke-width:1px;stroke-linecap:butt;stroke-linejoin:miter;stroke-opacity:1"
       d="M 5.1428571,30.285714 11.142857,30.142857"
       id="path3093"
       inkscape:connector-curvature="0" />
    <path
       style="fill:none;stroke:#000000;stroke-width:1px;stroke-linecap:butt;stroke-linejoin:miter;stroke-opacity:1"
       d="m 12.428571,11.142857 c 0.01645,0.09562 0.0729,0.183713 0.152893,0.238619 0.08,0.05491 0.182492,0.0759 0.277634,0.05687 0.09514,-0.01903 0.181678,-0.07783 0.234403,-0.15928 0.05273,-0.08145 0.07095,-0.184475 0.04936,-0.279069 -0.0055,-0.0241 -0.01347,-0.04775 -0.01606,-0.07233 -0.0013,-0.01229 -0.0012,-0.0248 0.0012,-0.03691 0.0024,-0.01212 0.0073,-0.02386 0.01484,-0.03361 0.0077,-0.0099 0.01813,-0.01757 0.02961,-0.02266 0.01148,-0.0051 0.02399,-0.0077 0.03653,-0.0083 0.02508,-0.0012 0.04989,0.0053 0.07371,0.01323 0.02382,0.0079 0.04726,0.0174 0.07186,0.02241 0.02461,0.005 0.05098,0.0053 0.074,-0.0047 0.01568,-0.0068 0.02909,-0.01812 0.04044,-0.03092 0.01135,-0.0128 0.0208,-0.02714 0.03028,-0.04137 0.0095,-0.01423 0.0191,-0.02848 0.03073,-0.04103 0.01163,-0.01254 0.02544,-0.02341 0.04141,-0.02954 0.02402,-0.0092 0.05107,-0.007 0.07586,-1.65e-4 0.02479,0.0069 0.04811,0.01811 0.07223,0.02706 0.02412,0.009 0.0498,0.01569 0.07537,0.0129 0.01279,-0.0014 0.02539,-0.0052 0.03638,-0.0119 0.01099,-0.0067 0.0203,-0.01631 0.02588,-0.0279 0.0052,-0.01089 0.0071,-0.02319 0.0069,-0.03527 -1.71e-4,-0.01209 -0.0023,-0.02406 -0.0046,-0.03593 -0.0023,-0.01187 -0.0048,-0.02374 -0.0057,-0.03579 -9.66e-4,-0.01205 -3.67e-4,-0.02438 0.0034,-0.03587 0.0065,-0.01997 0.02256,-0.03614 0.04163,-0.04496 0.01906,-0.0088 0.0409,-0.0107 0.06168,-0.0076 0.04155,0.0063 0.0775,0.03127 0.11196,0.05532 0.03446,0.02405 0.07088,0.04857 0.112586,0.05372 0.02085,0.0026 0.04265,-5.2e-5 0.06134,-0.0097 0.01869,-0.0096 0.03394,-0.02658 0.03938,-0.04687 0.0031,-0.01176 0.003,-0.02418 0.0014,-0.03625 -0.0016,-0.01206 -0.0046,-0.02389 -0.0071,-0.0358 -0.0025,-0.0119 -0.0046,-0.02401 -0.0042,-0.03618 3.57e-4,-0.01217 0.0033,-0.02449 0.01,-0.03464 0.0074,-0.01123 0.01923,-0.01924 0.03209,-0.02322 0.01286,-0.004 0.02673,-0.0041 0.03997,-0.0017 0.02649,0.0049 0.04999,0.01946 0.07321,0.0331 0.02322,0.01364 0.04786,0.02691 0.07474,0.0286 0.01344,8.46e-4 0.02723,-0.0014 0.03918,-0.0076 0.01196,-0.0062 0.02195,-0.01656 0.02652,-0.02923 0.0043,-0.01178 0.0037,-0.02482 0.0011,-0.03707 -0.0026,-0.01225 -0.0072,-0.02398 -0.01093,-0.03593 -0.0037,-0.01195 -0.0067,-0.0244 -0.0058,-0.0369 4.16e-4,-0.0062 0.0018,-0.01246 0.0044,-0.01817 0.0026,-0.0057 0.0064,-0.01089 0.01131,-0.01478 0.0049,-0.0039 0.01087,-0.0065 0.01703,-0.0077 0.0062,-0.0013 0.01254,-0.0013 0.01878,-5.49e-4 0.01249,0.0015 0.02433,0.0063 0.03608,0.01076 0.01176,0.0045 0.02381,0.0088 0.03638,0.0095 0.0063,3.32e-4 0.01265,-2.75e-4 0.01865,-0.0022 0.006,-0.0019 0.0116,-0.0052 0.01593,-0.0098 0.0043,-0.0046 0.0073,-0.01038 0.0089,-0.01649 0.0016,-0.0061 0.0019,-0.01252 0.0013,-0.01881 -0.0012,-0.01257 -0.006,-0.02449 -0.01069,-0.03623 -0.0047,-0.01173 -0.0094,-0.0237 -0.01044,-0.03628 -5.36e-4,-0.0063 -1.42e-4,-0.01271 0.0016,-0.01878 0.0017,-0.0061 0.0048,-0.01181 0.0093,-0.01627 0.0045,-0.0045 0.0102,-0.0076 0.01628,-0.0093 0.0061,-0.0017 0.01249,-0.0021 0.01878,-0.0016 0.01259,0.0011 0.02455,0.0058 0.03628,0.01045 0.01173,0.0047 0.02365,0.0095 0.03623,0.01069 0.0063,6.17e-4 0.0127,3.27e-4 0.01881,-0.0013 0.0061,-0.0016 0.0119,-0.0046 0.01648,-0.0089 0.0046,-0.0043 0.0078,-0.0099 0.0097,-0.01594 0.0019,-0.006 0.0025,-0.01237 0.0022,-0.01865 -6.76e-4,-0.01257 -0.005,-0.02462 -0.0095,-0.03638 -0.0045,-0.01176 -0.0092,-0.0236 -0.01076,-0.03609 -7.69e-4,-0.0062 -7.18e-4,-0.01263 5.71e-4,-0.01878 0.0013,-0.0062 0.0038,-0.0121 0.0078,-0.01702 0.0039,-0.0049 0.0091,-0.0087 0.01482,-0.011261 0.0057,-0.00256 0.01193,-0.00392 0.01818,-0.00431 0.0125,-7.883e-4 0.02493,0.00219 0.03688,0.00596 0.01195,0.00376 0.02367,0.00835 0.03593,0.010927 0.01226,0.0026 0.02531,0.0031 0.03705,-0.0013 0.0127,-0.00473 0.02299,-0.014974 0.02898,-0.027134 0.006,-0.01216 0.0079,-0.026099 0.0067,-0.039599 -0.0024,-0.027001 -0.01642,-0.051419 -0.03053,-0.074563 -0.01411,-0.023144 -0.02897,-0.046824 -0.03336,-0.073573 -0.0022,-0.013374 -0.0016,-0.027362 0.003,-0.040113 0.0046,-0.01275 0.01341,-0.024175 0.02527,-0.030732 0.01067,-0.0059 0.02325,-0.00765 0.03543,-0.00699 0.01218,6.538e-4 0.02411,0.00358 0.03594,0.00653 0.01183,0.00295 0.02374,0.00595 0.03591,0.00676 0.01217,8.135e-4 0.02476,-6.789e-4 0.03558,-0.0063 0.01183,-0.00614 0.02091,-0.016985 0.02602,-0.029295 0.0051,-0.012311 0.0064,-0.026002 0.005,-0.039255 -0.0029,-0.026507 -0.01611,-0.050609 -0.02925,-0.073807 -0.01314,-0.023197 -0.02669,-0.047064 -0.03022,-0.07349 -0.0018,-0.013213 -8.9e-4,-0.026918 0.0037,-0.039416 0.0046,-0.012498 0.0132,-0.023715 0.0247,-0.030452 0.0105,-0.00615 0.02294,-0.00835 0.0351,-0.00815 0.01216,2.031e-4 0.02416,0.00269 0.03602,0.0054 0.01186,0.00271 0.02371,0.00566 0.03582,0.0068 0.01211,0.00114 0.02461,4.071e-4 0.03592,-0.00405 0.01209,-0.00476 0.02236,-0.013663 0.02954,-0.024485 0.0072,-0.010822 0.01137,-0.023493 0.01294,-0.036388 0.0031,-0.025789 -0.0039,-0.05177 -0.01337,-0.075964 -0.0095,-0.024195 -0.02142,-0.047469 -0.0288,-0.072381 -0.0074,-0.024912 -0.0099,-0.05234 -3.13e-4,-0.076496 0.0063,-0.015942 0.01753,-0.029561 0.03038,-0.040914 0.01285,-0.011353 0.02736,-0.020633 0.04177,-0.02993 0.01441,-0.0093 0.02885,-0.018718 0.04148,-0.030306 0.01264,-0.011588 0.0235,-0.025543 0.02922,-0.041707 0.008,-0.02257 0.0057,-0.047317 0.0035,-0.071158 -0.0022,-0.023841 -0.0035,-0.047757 -0.0035,-0.071699 l 0,-0.1428572 c 0,-0.024367 -0.0028,-0.048624 -0.0073,-0.072575 -0.0022,-0.011976 -0.0044,-0.024076 -0.004,-0.036254 3.51e-4,-0.012179 0.0035,-0.024701 0.01134,-0.034028 0.008,-0.00955 0.02032,-0.014834 0.03271,-0.016293 0.01239,-0.00146 0.02495,5.866e-4 0.03703,0.00369 0.01209,0.00311 0.02388,0.00727 0.03602,0.010171 0.01214,0.0029 0.02479,0.00452 0.0371,0.00243 0.01596,-0.00271 0.03067,-0.011801 0.04057,-0.024604 0.0099,-0.012803 0.015,-0.029158 0.01455,-0.045339 -4.5e-4,-0.016182 -0.0064,-0.032098 -0.01624,-0.044921 -0.0099,-0.012823 -0.02364,-0.022542 -0.03888,-0.027993 -0.02259,-0.00808 -0.04737,-0.00678 -0.0712,-0.00404 -0.02383,0.00275 -0.04784,0.00684 -0.07166,0.00404 -0.02189,-0.00258 -0.04297,-0.011048 -0.06097,-0.023762 -0.018,-0.012714 -0.03294,-0.02961 -0.04396,-0.048694 -0.02204,-0.038167 -0.02801,-0.084333 -0.02169,-0.1279531 0.0063,-0.04362 0.02431,-0.084907 0.04734,-0.1224865 0.02303,-0.03758 0.05109,-0.071789 0.07928,-0.1056767 0.03824,-0.045979 0.077,-0.09179 0.109166,-0.142207 0.03216,-0.050417 0.05773,-0.1059756 0.06695,-0.1650615 0.0092,-0.059086 0.0011,-0.1220566 -0.0299,-0.1731925 -0.0155,-0.025568 -0.03656,-0.047881 -0.06177,-0.063969 -0.0252,-0.016088 -0.05457,-0.02584 -0.08445,-0.026999 -0.02401,-9.308e-4 -0.04785,0.00359 -0.07175,0.00607 -0.0239,0.00248 -0.04878,0.0028 -0.07111,-0.00607 -0.02619,-0.010404 -0.04657,-0.033058 -0.05706,-0.059208 -0.01049,-0.02615 -0.01163,-0.055472 -0.0063,-0.083141 0.01065,-0.055338 0.04532,-0.1025016 0.07785,-0.1485135 0.01627,-0.023006 0.03228,-0.046317 0.04502,-0.071449 0.01274,-0.025132 0.02218,-0.052263 0.02453,-0.080342 0.0024,-0.028078 -0.0027,-0.057204 -0.01724,-0.08135 -0.01452,-0.024147 -0.039,-0.042796 -0.0668,-0.047425 -0.02388,-0.00398 -0.04811,0.00223 -0.07197,0.00631 -0.01193,0.00204 -0.02403,0.00356 -0.03613,0.00299 -0.01209,-5.679e-4 -0.02425,-0.0033 -0.03476,-0.0093 -0.01109,-0.00633 -0.02002,-0.01616 -0.02602,-0.027433 -0.006,-0.011273 -0.0091,-0.023948 -0.01,-0.036691 -0.0017,-0.025487 0.0057,-0.050702 0.01475,-0.074579 0.0091,-0.023877 0.01997,-0.047197 0.0259,-0.07204 0.0059,-0.024844 0.0065,-0.051993 -0.0047,-0.074971 -0.0065,-0.01332 -0.01674,-0.024763 -0.02929,-0.032621 -0.01255,-0.00786 -0.02733,-0.012104 -0.04214,-0.012104 -0.01481,0 -0.02959,0.00425 -0.04214,0.012104 -0.01255,0.00786 -0.02283,0.019302 -0.02929,0.032621 0.0181,-9.064e-4 0.03575,-0.009 0.04824,-0.022138 0.01249,-0.013134 0.0197,-0.031163 0.0197,-0.04929 0,-0.018127 -0.0072,-0.036156 -0.0197,-0.04929 C 15.03575,6.4375753 15.018104,6.4294778 15,6.4285714 c -0.01266,-6.338e-4 -0.02526,0.0021 -0.0374,0.00573 -0.01215,0.00362 -0.02403,0.00815 -0.03632,0.011244 -0.01229,0.00309 -0.02519,0.00473 -0.03766,0.00246 -0.0062,-0.00114 -0.01232,-0.00326 -0.01776,-0.0065 -0.0054,-0.00324 -0.01024,-0.00763 -0.01372,-0.012932 -0.0069,-0.010493 -0.0081,-0.023854 -0.0063,-0.036264 0.0018,-0.01241 0.0065,-0.024187 0.0108,-0.035983 0.0043,-0.011796 0.0082,-0.023951 0.0085,-0.036496 1.25e-4,-0.00627 -6.93e-4,-0.012597 -0.0028,-0.018507 -0.0021,-0.00591 -0.0055,-0.011399 -0.01017,-0.015607 -0.0047,-0.00423 -0.01052,-0.00709 -0.01665,-0.00861 -0.0061,-0.00152 -0.01253,-0.00174 -0.01881,-0.00108 -0.01255,0.00133 -0.02444,0.0061 -0.03618,0.010731 -0.01174,0.00463 -0.02373,0.00923 -0.03631,0.010187 -0.0063,4.784e-4 -0.01269,2.23e-5 -0.01875,-0.00177 -0.0061,-0.00179 -0.01174,-0.00496 -0.01617,-0.00946 -0.0044,-0.00451 -0.0075,-0.010273 -0.0092,-0.016365 -0.0017,-0.00609 -0.002,-0.012509 -0.0014,-0.018803 0.0012,-0.012588 0.0059,-0.024527 0.01062,-0.036261 0.0047,-0.011734 0.0095,-0.023672 0.01062,-0.036261 5.8e-4,-0.00629 2.37e-4,-0.012711 -0.0014,-0.018803 -0.0017,-0.00609 -0.0047,-0.011854 -0.0092,-0.016365 -0.0044,-0.0045 -0.01012,-0.00767 -0.01617,-0.00946 -0.0061,-0.00179 -0.01245,-0.00225 -0.01874,-0.00177 -0.01258,9.568e-4 -0.02457,0.00555 -0.03631,0.010187 -0.01174,0.00463 -0.02363,0.0094 -0.03618,0.010731 -0.0063,6.647e-4 -0.01268,4.466e-4 -0.01881,-0.00108 -0.0061,-0.00152 -0.01197,-0.00438 -0.01665,-0.00861 -0.0047,-0.00421 -0.0081,-0.0097 -0.01017,-0.015607 -0.0021,-0.00591 -0.0029,-0.012235 -0.0028,-0.018507 2.51e-4,-0.012544 0.0042,-0.0247 0.0085,-0.036496 0.0043,-0.011796 0.009,-0.023573 0.0108,-0.035983 0.0018,-0.01241 5.8e-4,-0.025771 -0.0063,-0.036264 -0.0035,-0.0053 -0.0083,-0.00969 -0.01372,-0.012932 -0.0054,-0.00324 -0.01153,-0.00536 -0.01776,-0.0065 -0.01247,-0.00227 -0.02536,-6.351e-4 -0.03766,0.00246 -0.01229,0.00309 -0.02417,0.00762 -0.03632,0.011244 -0.01215,0.00362 -0.02474,0.00636 -0.0374,0.00573 -0.0181,-9.065e-4 -0.03575,-0.009 -0.04824,-0.022138 -0.01249,-0.013134 -0.0197,-0.031163 -0.0197,-0.04929 0,-0.018127 0.0072,-0.036156 0.0197,-0.04929 0.01249,-0.013134 0.03014,-0.021232 0.04824,-0.022138 -0.0031,-0.036448 -0.01951,-0.071613 -0.04538,-0.097481 -0.02587,-0.025868 -0.06103,-0.042237 -0.09748,-0.045376 -0.04934,-0.00425 -0.09727,0.014792 -0.145678,0.025209 -0.02421,0.00521 -0.04918,0.00829 -0.07374,0.00518 -0.02456,-0.00311 -0.04883,-0.01283 -0.06629,-0.030388 -0.01841,-0.018516 -0.0281,-0.044984 -0.02756,-0.07109 5.34e-4,-0.026106 0.01093,-0.051637 0.02756,-0.071767 0.0202,-0.024452 0.04991,-0.041143 0.08147,-0.044386 0.03155,-0.00324 0.06453,0.00736 0.08741,0.029321 0.01144,0.010981 0.02034,0.024625 0.02561,0.039582 0.0053,0.014957 0.0069,0.031207 0.0045,0.046887 -0.0024,0.01568 -0.0088,0.030754 -0.01853,0.043259 -0.0098,0.012505 -0.02286,0.022398 -0.03762,0.028194 -0.02588,0.010161 -0.05556,0.00731 -0.08138,-0.00299 -0.02582,-0.0103 -0.0483,-0.027503 -0.06904,-0.046015 -0.02074,-0.018512 -0.04014,-0.03856 -0.06187,-0.055895 -0.02173,-0.017335 -0.04626,-0.032073 -0.07343,-0.037958 -0.02332,-0.00505 -0.0475,-0.0036 -0.07132,-0.00222 -0.02382,0.00137 -0.04767,0.00222 -0.07154,0.00222 l -0.142857,0 c -0.02445,0 -0.04877,0.003 -0.07274,0.0078 -0.01199,0.0024 -0.02412,0.0047 -0.03633,0.00432 -0.01222,-3.838e-4 -0.02482,-0.0038 -0.03378,-0.012116 -0.0046,-0.00423 -0.008,-0.00959 -0.0103,-0.015373 -0.0023,-0.00579 -0.0034,-0.01199 -0.0037,-0.018204 -5.05e-4,-0.012428 0.0025,-0.024733 0.0061,-0.036637 0.0036,-0.011904 0.0079,-0.023653 0.01014,-0.035887 0.0022,-0.012234 0.0024,-0.025198 -0.0022,-0.036757 -0.005,-0.012562 -0.01537,-0.022631 -0.02757,-0.02845 -0.0122,-0.00582 -0.0261,-0.00758 -0.03956,-0.00632 -0.02692,0.00252 -0.05126,0.016448 -0.07441,0.030417 -0.02315,0.013968 -0.04687,0.028606 -0.07358,0.032819 -0.01335,0.00211 -0.0273,0.00146 -0.03999,-0.00318 -0.0127,-0.00464 -0.02406,-0.013452 -0.0306,-0.025284 -0.0059,-0.010673 -0.0077,-0.02324 -0.007,-0.035417 6.36e-4,-0.012177 0.0035,-0.024108 0.0065,-0.035943 0.0029,-0.011835 0.0059,-0.023736 0.0067,-0.035901 8.24e-4,-0.012165 -6.35e-4,-0.024745 -0.0062,-0.035596 -0.0061,-0.011815 -0.01676,-0.020942 -0.02896,-0.026177 -0.0122,-0.00523 -0.02581,-0.00673 -0.03903,-0.00551 -0.02644,0.00245 -0.05065,0.015284 -0.07388,0.028155 -0.02323,0.01287 -0.04698,0.026278 -0.07326,0.030074 -0.01314,0.0019 -0.02678,0.00127 -0.03935,-0.00302 -0.01257,-0.00429 -0.024,-0.012391 -0.03123,-0.023528 -0.0066,-0.010202 -0.0095,-0.0225 -0.0099,-0.034656 -3.77e-4,-0.012156 0.0016,-0.02426 0.0041,-0.036168 0.0025,-0.011908 0.0054,-0.023736 0.007,-0.035793 0.0016,-0.012057 0.0018,-0.02446 -0.0012,-0.03624 -0.0051,-0.019922 -0.01943,-0.036887 -0.03727,-0.047115 -0.01784,-0.010228 -0.03895,-0.01403 -0.05948,-0.012798 -0.04106,0.00246 -0.07833,0.023881 -0.113071,0.045908 -0.03474,0.022027 -0.0699,0.045726 -0.110246,0.053734 -0.02017,0.004 -0.04143,0.00384 -0.06097,-0.00256 -0.01955,-0.0064 -0.03725,-0.019351 -0.04753,-0.037166 -0.01213,-0.021024 -0.01311,-0.046703 -0.01031,-0.070812 0.0028,-0.024109 0.0091,-0.047804 0.01031,-0.072045 0.0017,-0.033607 -0.0066,-0.06766 -0.02354,-0.096724 -0.01696,-0.029064 -0.04253,-0.053033 -0.07263,-0.068082 -0.0301,-0.015049 -0.06461,-0.021123 -0.09804,-0.017252 -0.03343,0.00387 -0.06564,0.017672 -0.0915,0.039201"
       id="path3109"
       inkscape:path-effect="#path-effect3111"
       inkscape:original-d="m 12.428571,11.142857 c -0.07301,-0.862314 0.542593,0.02884 0.714286,-0.142857 0.03367,-0.03367 -0.03367,-0.109185 0,-0.142857 0.06734,-0.06734 0.200531,0.04259 0.285714,0 0.06023,-0.03012 0.08262,-0.11274 0.142858,-0.142857 0.08518,-0.04259 0.21837,0.06734 0.285714,0 0.03367,-0.03367 -0.03367,-0.109186 0,-0.142857 0.07143,-0.07143 0.357143,0.07143 0.428571,0 0.03367,-0.03367 -0.03367,-0.109186 0,-0.142858 0.06734,-0.06734 0.218371,0.06734 0.285715,0 0.03367,-0.03367 -0.03367,-0.109185 0,-0.142857 0.03367,-0.03367 0.109185,0.03367 0.142857,0 0.03367,-0.03367 -0.03367,-0.109185 0,-0.142857 0.03367,-0.03367 0.109185,0.03367 0.142857,0 0.03367,-0.03367 -0.03367,-0.109185 0,-0.142857 0.03367,-0.033672 0.109185,0.03367 0.142857,0 0.06734,-0.067343 -0.06734,-0.2183708 0,-0.2857143 0.03367,-0.033672 0.109185,0.033672 0.142857,0 0.06734,-0.067343 -0.06734,-0.2183708 0,-0.2857143 0.03367,-0.033672 0.109186,0.033672 0.142857,0 0.06734,-0.067343 -0.04259,-0.2005307 0,-0.2857143 0.03012,-0.060234 0.11274,-0.082623 0.142857,-0.1428571 0.0213,-0.042592 0,-0.095238 0,-0.1428571 0,-0.047619 0,-0.095238 0,-0.1428572 0,-0.047619 -0.03367,-0.1091854 0,-0.1428571 0.03367,-0.033672 0.109186,0.033672 0.142858,0 0.03367,-0.033672 0.03367,-0.1091854 0,-0.1428572 -0.03367,-0.033672 -0.109186,0.033672 -0.142858,0 -0.0046,-0.00459 0,-0.3939247 0,-0.4285714 0,-0.052462 0.0057,-0.5656798 0,-0.5714286 -0.03367,-0.033672 -0.109185,0.033672 -0.142857,0 -0.03438,-0.034376 0.03438,-0.5370527 0,-0.5714285 -0.03367,-0.033672 -0.109185,0.033672 -0.142857,0 -0.06734,-0.067344 0.06734,-0.2183708 0,-0.2857143 -0.03367,-0.033672 -0.09524,0 -0.142857,0 0,-0.047619 0.03367,-0.1091854 0,-0.1428572 -0.03367,-0.033672 -0.109185,0.033672 -0.142857,0 -0.03367,-0.033672 0.03367,-0.1091854 0,-0.1428571 -0.03367,-0.033672 -0.109186,0.033672 -0.142857,0 -0.03367,-0.033672 0.03367,-0.1091854 0,-0.1428572 -0.03367,-0.033672 -0.109186,0.033672 -0.142857,0 -0.03367,-0.033672 0.03367,-0.1091853 0,-0.1428571 -0.03367,-0.033672 -0.109186,0.033672 -0.142858,0 -0.03367,-0.033672 0.03367,-0.1091854 0,-0.1428571 -0.380952,0 0.04762,0.047619 -0.142857,-0.1428572 -0.06734,-0.067343 -0.21837,0.067344 -0.285714,0 -0.03367,-0.033672 -0.04762,-0.1428571 0,-0.1428571 0.06734,0 0.210201,0.1428571 0.142857,0.1428571 -0.106479,0 -0.184699,-0.1091854 -0.285714,-0.1428571 -0.04518,-0.015059 -0.09524,0 -0.142857,0 -0.04762,0 -0.09524,0 -0.142857,0 -0.04762,0 -0.109186,0.033672 -0.142858,0 -0.03367,-0.033672 0.03367,-0.1091854 0,-0.1428572 -0.06734,-0.067343 -0.21837,0.067343 -0.285714,0 -0.03367,-0.033672 0.03367,-0.1091854 0,-0.1428571 -0.06734,-0.067344 -0.218371,0.067343 -0.285714,0 -0.03367,-0.033672 0.03367,-0.1091854 0,-0.1428572 -0.07143,-0.071428 -0.357143,0.071429 -0.428572,0 C 12.3949,5.1091854 12.462243,5.0336718 12.428571,5 12.287646,4.8590747 12.142857,5.2927253 12.142857,4.8571429"
       inkscape:connector-curvature="0" />
    <path
       style="fill:none;stroke:#000000;stroke-width:1px;stroke-linecap:butt;stroke-linejoin:miter;stroke-opacity:1"
       d="m 14.714286,26.142857 0.857143,0 c 0.02414,0 0.04822,-0.0022 0.07211,-0.0056 0.01195,-0.0017 0.02397,-0.0034 0.03604,-0.0032 0.01207,2.53e-4 0.02436,0.0026 0.03471,0.0088 0.01154,0.0069 0.01998,0.01845 0.02435,0.03118 0.0044,0.01273 0.0049,0.02659 0.0027,0.03988 -0.0043,0.02657 -0.01877,0.05022 -0.03245,0.0734 -0.01369,0.02318 -0.02723,0.04759 -0.02948,0.07441 -0.0011,0.01341 7.27e-4,0.02723 0.0066,0.03936 0.0058,0.01213 0.01584,0.02244 0.02832,0.02749 0.0115,0.0047 0.02442,0.0047 0.03664,0.0026 0.01222,-0.0021 0.02398,-0.0063 0.03587,-0.0098 0.01189,-0.0035 0.02415,-0.0065 0.03654,-0.0061 0.0124,3.98e-4 0.02508,0.0045 0.0338,0.01329 0.0087,0.0088 0.01266,0.02152 0.01295,0.03392 2.95e-4,0.0124 -0.0027,0.02462 -0.0063,0.0365 -0.0036,0.01188 -0.0077,0.02364 -0.0097,0.03587 -0.002,0.01223 -0.0018,0.02517 0.003,0.03656 0.0054,0.01257 0.01624,0.02241 0.0288,0.02781 0.01256,0.0054 0.02669,0.0066 0.04024,0.0047 0.02709,-0.0037 0.05106,-0.01883 0.07414,-0.0335 0.02308,-0.01467 0.0472,-0.02962 0.07434,-0.03295 0.01357,-0.0017 0.02769,-2.42e-4 0.04013,0.0054 0.01244,0.0057 0.02306,0.01579 0.02807,0.02851 0.0046,0.01162 0.0043,0.02466 0.0019,0.03691 -0.0024,0.01225 -0.0069,0.02399 -0.01063,0.03591 -0.0037,0.01192 -0.0068,0.02429 -0.0061,0.03677 3.16e-4,0.0062 0.0016,0.01246 0.004,0.01821 0.0024,0.0058 0.0061,0.01102 0.01085,0.01506 0.0048,0.004 0.01056,0.0068 0.01663,0.0083 0.0061,0.0015 0.0124,0.0018 0.01863,0.0013 0.01246,-0.001 0.02439,-0.0053 0.03616,-0.0095 0.01176,-0.0042 0.02369,-0.0085 0.03615,-0.0096 0.0062,-5.31e-4 0.01256,-2.38e-4 0.01863,0.0013 0.0061,0.0015 0.01188,0.0042 0.01666,0.0082 0.0048,0.004 0.0085,0.0093 0.01093,0.01502 0.0025,0.0057 0.0037,0.01195 0.0041,0.01819 6.91e-4,0.01247 -0.0023,0.02486 -0.006,0.03679 -0.0037,0.01193 -0.0082,0.02367 -0.01065,0.03591 -0.0025,0.01225 -0.0028,0.02527 0.0016,0.03695 0.0048,0.01265 0.01507,0.02287 0.02723,0.02881 0.01215,0.0059 0.02607,0.0078 0.03955,0.0066 0.02696,-0.0024 0.05137,-0.01628 0.07453,-0.0303 0.02315,-0.01401 0.04683,-0.02877 0.07354,-0.03314 0.01335,-0.0022 0.02731,-0.0016 0.04006,0.0029 0.01274,0.0046 0.02419,0.01328 0.03083,0.02507 0.006,0.01062 0.0078,0.02317 0.0073,0.03534 -5.45e-4,0.01217 -0.0034,0.02412 -0.0063,0.03596 -0.0029,0.01184 -0.0059,0.02373 -0.0068,0.03588 -8.98e-4,0.01215 4.11e-4,0.02473 0.0058,0.03567 0.0058,0.01181 0.01607,0.02115 0.02796,0.02677 0.01188,0.0056 0.02528,0.0077 0.03841,0.0071 0.02627,-0.0013 0.05083,-0.01285 0.07418,-0.02496 0.02335,-0.01211 0.04683,-0.02515 0.07272,-0.02975 0.01295,-0.0023 0.0264,-0.0024 0.03914,8.8e-4 0.01274,0.0033 0.02473,0.01002 0.0333,0.02 0.008,0.0094 0.01282,0.02124 0.01486,0.03342 0.002,0.01217 0.0014,0.02466 -4.02e-4,0.03687 -0.0037,0.02441 -0.01221,0.04799 -0.01446,0.07257 -0.0036,0.03957 0.01011,0.08043 0.03689,0.109784 0.02679,0.02935 0.06622,0.04675 0.105962,0.04675 0.03974,0 0.07917,-0.0174 0.105962,-0.04675 0.02679,-0.02935 0.04052,-0.07021 0.03689,-0.109784 0.03877,-0.0063 0.08021,0.0071 0.107984,0.03487 0.02777,0.02777 0.04116,0.06922 0.03487,0.107984 -0.0041,0.02516 -0.01576,0.04854 -0.0205,0.07358 -0.0024,0.01252 -0.0029,0.02556 9.4e-5,0.03794 0.003,0.01237 0.0099,0.02406 0.0204,0.03135 0.01006,0.007 0.02272,0.0095 0.03497,0.0092 0.01226,-3.4e-4 0.02427,-0.0033 0.0361,-0.0065 0.01183,-0.0032 0.02368,-0.0066 0.03588,-0.0079 0.0122,-0.0012 0.02492,-1.81e-4 0.03591,0.0053 0.01219,0.006 0.02146,0.0172 0.02642,0.02986 0.005,0.01266 0.0058,0.0267 0.0038,0.04015 -0.0041,0.02689 -0.01899,0.0507 -0.03332,0.07381 -0.01433,0.02311 -0.02875,0.04738 -0.03159,0.07443 -0.0014,0.01352 2.32e-4,0.02754 0.006,0.03983 0.0058,0.01229 0.01598,0.02273 0.02866,0.02764 0.01165,0.0045 0.02468,0.0042 0.03693,0.0018 0.01225,-0.0024 0.02399,-0.0069 0.03591,-0.01064 0.01193,-0.0037 0.0243,-0.0067 0.03678,-0.0061 0.0062,3.32e-4 0.01245,0.0016 0.0182,0.004 0.0057,0.0025 0.01101,0.0061 0.01504,0.0109 0.004,0.0048 0.0068,0.01058 0.0083,0.01665 0.0015,0.0061 0.0018,0.0124 0.0013,0.01863 -0.0011,0.01246 -0.0053,0.02439 -0.0096,0.03615 -0.0042,0.01176 -0.0085,0.0237 -0.0096,0.03616 -5.21e-4,0.0062 -2.15e-4,0.01256 0.0013,0.01863 0.0015,0.0061 0.0043,0.01187 0.0083,0.01663 0.004,0.0048 0.0093,0.0084 0.01506,0.01085 0.0058,0.0024 0.01197,0.0037 0.01821,0.004 0.01248,6.29e-4 0.02484,-0.0024 0.03676,-0.0061 0.01192,-0.0037 0.02365,-0.0082 0.03591,-0.01063 0.01225,-0.0024 0.02529,-0.0027 0.03691,0.0019 0.01273,0.005 0.02285,0.01569 0.02848,0.02816 0.0056,0.01247 0.007,0.02662 0.0053,0.0402 -0.0034,0.02716 -0.01851,0.05125 -0.03325,0.07432 -0.01474,0.02307 -0.0299,0.04708 -0.03355,0.07421 -0.0018,0.01357 -5.87e-4,0.02772 0.0049,0.04026 0.0055,0.01254 0.01546,0.02333 0.02811,0.02855 0.0115,0.0047 0.02448,0.0047 0.03672,0.0025 0.01224,-0.0022 0.02399,-0.0065 0.03589,-0.01014 0.01189,-0.0036 0.02418,-0.0067 0.03662,-0.0062 0.0062,2.22e-4 0.01243,0.0013 0.01822,0.0036 0.0058,0.0023 0.01117,0.0057 0.01541,0.01024 0.0083,0.0089 0.01178,0.02154 0.01216,0.03376 3.86e-4,0.01222 -0.0019,0.02435 -0.0043,0.03634 -0.0048,0.02397 -0.0078,0.0483 -0.0078,0.07275 0,0.04762 0,0.09524 0,0.142857 0,0.380953 0,0.761905 0,1.142858 0,0.238095 0,0.47619 0,0.714285 0,0.02431 0.0027,0.04852 0.0069,0.07246 0.0021,0.01197 0.0042,0.02405 0.0038,0.0362 -3.27e-4,0.01215 -0.0033,0.02462 -0.01075,0.0342 -0.0077,0.0099 -0.01975,0.01588 -0.03212,0.01803 -0.01238,0.0022 -0.02513,7.73e-4 -0.03739,-0.002 -0.02451,-0.0055 -0.04823,-0.01652 -0.07335,-0.01605 -0.01449,2.72e-4 -0.02883,0.0045 -0.04141,0.01167 -0.01258,0.0072 -0.02339,0.01736 -0.03174,0.0292 -0.0167,0.02369 -0.0232,0.05366 -0.02126,0.08258 0.0019,0.02892 0.01186,0.05687 0.02551,0.08244 0.01365,0.02557 0.03098,0.04897 0.04867,0.07193 0.03538,0.04592 0.07359,0.09274 0.08607,0.149346 0.0062,0.0283 0.0055,0.05862 -0.0055,0.08544 -0.01098,0.02682 -0.03283,0.04972 -0.06035,0.05882 -0.02277,0.0075 -0.04748,0.0054 -0.07127,0.0024 -0.02379,-0.003 -0.048,-0.0068 -0.07158,-0.0024 -0.01784,0.0033 -0.03472,0.01124 -0.04898,0.02246 -0.01425,0.01121 -0.02589,0.02564 -0.03434,0.04169 -0.01691,0.03209 -0.02079,0.07006 -0.01506,0.10588 0.0057,0.03582 0.0206,0.06968 0.03931,0.100752 0.01871,0.03107 0.04126,0.05963 0.06365,0.08817 0.02239,0.02854 0.04475,0.05726 0.06304,0.08859 0.01828,0.03133 0.03248,0.06553 0.03723,0.101489 0.0047,0.03596 -4.44e-4,0.07385 -0.01865,0.105227 -0.0091,0.01569 -0.02138,0.02959 -0.03615,0.04012 -0.01477,0.01052 -0.03206,0.01761 -0.05005,0.01992 -0.02391,0.0031 -0.04797,-0.0022 -0.07183,-0.0056 -0.01193,-0.0017 -0.02398,-0.0029 -0.03602,-0.0024 -0.01204,5.27e-4 -0.02411,0.0029 -0.035,0.008 -0.01853,0.0088 -0.03272,0.02553 -0.04028,0.0446 -0.0076,0.01907 -0.0088,0.04028 -0.0056,0.06054 0.0063,0.04053 0.0293,0.07622 0.05128,0.110849 0.02198,0.03463 0.04407,0.07113 0.04829,0.111931 0.0021,0.0204 -5.33e-4,0.04156 -0.0096,0.05998 -0.009,0.01842 -0.02475,0.03387 -0.0441,0.04068 -0.01137,0.004 -0.02363,0.005 -0.03567,0.0044 -0.01204,-6.1e-4 -0.02394,-0.0028 -0.03581,-0.0049 -0.01187,-0.0021 -0.02379,-0.0042 -0.03583,-0.0046 -0.01205,-4.41e-4 -0.0243,7.95e-4 -0.03555,0.0051 -0.01983,0.0076 -0.03533,0.02461 -0.04328,0.04431 -0.0079,0.01969 -0.0088,0.04182 -0.0047,0.06265 0.0082,0.04167 0.03469,0.07701 0.05948,0.111499 0.01239,0.01725 0.02459,0.03473 0.03427,0.05364 0.0097,0.0189 0.01684,0.03935 0.01856,0.06052 0.0017,0.02117 -0.0023,0.04313 -0.01342,0.06119 -0.01117,0.01806 -0.02993,0.03181 -0.05096,0.03476 -0.01243,0.0017 -0.02511,-2.18e-4 -0.03725,-0.0034 -0.01215,-0.0032 -0.02396,-0.0075 -0.0361,-0.01068 -0.01214,-0.0032 -0.02482,-0.0051 -0.03725,-0.0034 -0.01243,0.0017 -0.02468,0.0075 -0.03225,0.01749 -0.0075,0.0099 -0.0098,0.02298 -0.0088,0.03536 9.95e-4,0.01238 0.005,0.0243 0.0089,0.03608 0.0039,0.01178 0.0079,0.02371 0.0088,0.0361 9.52e-4,0.01238 -0.0014,0.02546 -0.009,0.03531 -0.0076,0.0099 -0.01992,0.0156 -0.03235,0.01723 -0.01243,0.0016 -0.02508,-4.32e-4 -0.0372,-0.0036 -0.01212,-0.0032 -0.02392,-0.0076 -0.03607,-0.01064 -0.01215,-0.0031 -0.02485,-0.0049 -0.03724,-0.0029 -0.01712,0.0027 -0.03249,0.01258 -0.04459,0.02499 -0.0121,0.01241 -0.02128,0.02733 -0.02997,0.04233 -0.0087,0.015 -0.01705,0.0303 -0.02782,0.04388 -0.01077,0.01358 -0.02425,0.02552 -0.04047,0.03165 -0.01126,0.0043 -0.02346,0.0056 -0.0355,0.0053 -0.01203,-3.02e-4 -0.02397,-0.0022 -0.03584,-0.0042 -0.02375,-0.0039 -0.04851,-0.0082 -0.07152,-0.0011 -0.01641,0.0051 -0.0307,0.01563 -0.04246,0.02814 -0.01176,0.01252 -0.0212,0.02699 -0.03041,0.04149 -0.0092,0.01449 -0.0183,0.02915 -0.02948,0.04219 -0.01117,0.01304 -0.02463,0.02451 -0.04051,0.03104 -0.02401,0.0099 -0.05146,0.0076 -0.07639,3.38e-4 -0.02492,-0.0073 -0.04819,-0.01918 -0.07234,-0.02868 -0.02416,-0.0095 -0.05007,-0.01666 -0.07585,-0.01366 -0.01289,0.0015 -0.02558,0.0056 -0.03644,0.01268 -0.01086,0.0071 -0.01984,0.01729 -0.0247,0.02932 -0.0045,0.01127 -0.0054,0.02376 -0.0043,0.03586 0.0011,0.01211 0.0039,0.02397 0.0066,0.03582 0.0027,0.01185 0.0052,0.02384 0.0055,0.03599 2.76e-4,0.01215 -0.0018,0.02459 -0.0077,0.03518 -0.0065,0.01149 -0.01727,0.02024 -0.02945,0.02526 -0.01218,0.005 -0.02567,0.0064 -0.0388,0.0053 -0.02625,-0.0024 -0.05043,-0.01469 -0.07369,-0.02708 -0.02326,-0.01238 -0.04701,-0.02528 -0.07311,-0.02894 -0.01305,-0.0018 -0.02656,-0.0012 -0.03909,0.0028 -0.01252,0.0041 -0.02401,0.01185 -0.03158,0.02264 -0.007,0.01 -0.01041,0.02215 -0.01128,0.0343 -8.7e-4,0.01215 6.91e-4,0.02436 0.0029,0.03633 0.0045,0.02395 0.01186,0.04811 0.0083,0.07223 -0.0029,0.01999 -0.0134,0.03856 -0.02809,0.05243 -0.01469,0.01387 -0.03341,0.02316 -0.05305,0.02786 -0.03929,0.0094 -0.08086,7.52e-4 -0.118572,-0.01375 -0.03771,-0.0145 -0.073,-0.03471 -0.110526,-0.0497 -0.03752,-0.01499 -0.07869,-0.02471 -0.118327,-0.01684 -0.02508,0.005 -0.04844,0.01678 -0.0736,0.02135 -0.01258,0.0023 -0.02567,0.0027 -0.03804,-5.1e-4 -0.01237,-0.0032 -0.024,-0.01028 -0.03122,-0.02083 -0.0069,-0.01011 -0.0094,-0.02274 -0.0091,-0.03498 3.25e-4,-0.01224 0.0033,-0.02425 0.0064,-0.03609 0.0032,-0.01184 0.0065,-0.02368 0.0078,-0.03587 0.0012,-0.01219 2.08e-4,-0.02489 -0.0051,-0.03591 -0.0058,-0.01208 -0.01664,-0.02144 -0.02899,-0.02669 -0.01235,-0.0053 -0.02616,-0.0066 -0.0395,-0.0051 -0.02668,0.003 -0.05078,0.01675 -0.07394,0.03032 -0.02316,0.01357 -0.04706,0.02755 -0.07367,0.03112 -0.0133,0.0018 -0.02713,8.19e-4 -0.03964,-0.004 -0.01251,-0.0049 -0.02363,-0.01379 -0.02998,-0.02562 -0.0058,-0.01074 -0.0074,-0.02332 -0.0067,-0.03549 7.18e-4,-0.01217 0.0037,-0.02409 0.0066,-0.03593 0.0029,-0.01183 0.0059,-0.02375 0.0066,-0.03592 7.45e-4,-0.01217 -8.47e-4,-0.02475 -0.0066,-0.03552 -0.0063,-0.01181 -0.01727,-0.02078 -0.02969,-0.02573 -0.01242,-0.005 -0.02617,-0.0061 -0.03944,-0.0044 -0.02654,0.0033 -0.05052,0.01687 -0.07372,0.03017 -0.02316,0.01327 -0.04716,0.02676 -0.07366,0.02995 -0.01325,0.0016 -0.02697,4.82e-4 -0.03938,-0.0044 -0.01241,-0.0049 -0.02343,-0.0138 -0.02981,-0.02552 -0.0058,-0.01069 -0.0076,-0.02322 -0.007,-0.03539 5.74e-4,-0.01217 0.0034,-0.0241 0.0062,-0.03594 0.0029,-0.01184 0.0058,-0.02373 0.0066,-0.03588 8.47e-4,-0.01215 -4.96e-4,-0.0247 -0.0058,-0.03564 -0.0057,-0.01178 -0.01594,-0.02113 -0.02774,-0.02685 -0.0118,-0.0057 -0.02511,-0.0079 -0.03821,-0.0075 -0.0262,9.09e-4 -0.05086,0.01208 -0.07425,0.02391 -0.02339,0.01184 -0.04682,0.02471 -0.07259,0.02951 -0.01289,0.0024 -0.02628,0.0027 -0.03905,-2.57e-4 -0.01277,-0.003 -0.02491,-0.0093 -0.03387,-0.01884 -0.0085,-0.0091 -0.01392,-0.02083 -0.0165,-0.03302 -0.0026,-0.01219 -0.0024,-0.02483 -7.85e-4,-0.03718 0.0033,-0.0247 0.01236,-0.04824 0.01728,-0.07266 0.01273,-0.0632 -0.0043,-0.13175 -0.04514,-0.181635 -0.04084,-0.04989 -0.104674,-0.08013 -0.169143,-0.08013 -0.06447,0 -0.128305,0.03024 -0.169143,0.08013 -0.04084,0.04988 -0.05788,0.118435 -0.04514,0.181635"
       id="path3121"
       inkscape:path-effect="#path-effect3123"
       inkscape:original-d="m 14.714286,26.142857 c 0.285714,0 0.571428,0 0.857143,0 0.04762,0 0.109185,-0.03367 0.142857,0 0.05453,0.05453 -0.05458,0.231138 0,0.285714 0.03367,0.03367 0.109185,-0.03367 0.142857,0 0.03367,0.03367 -0.03367,0.109186 0,0.142858 0.06734,0.06734 0.218371,-0.06734 0.285714,0 0.03367,0.03367 -0.03367,0.109185 0,0.142857 0.03367,0.03367 0.109186,-0.03367 0.142857,0 0.03367,0.03367 -0.03367,0.109185 0,0.142857 0.06734,0.06734 0.218371,-0.06734 0.285715,0 0.03367,0.03367 -0.03367,0.109185 0,0.142857 0.06734,0.06734 0.21837,-0.06734 0.285714,0 0.03367,0.03367 -0.03367,0.109185 0,0.142857 0.06734,0.06734 0.218371,-0.06734 0.285714,0 0,0.380953 -0.04762,-0.04762 0.142857,0.142857 0.03367,0.03367 -0.03367,0.109186 0,0.142857 0.03367,0.03367 0.109186,-0.03367 0.142857,0 0.06734,0.06734 -0.06734,0.218371 0,0.285715 0.03367,0.03367 0.109186,-0.03367 0.142858,0 0.03367,0.03367 -0.03367,0.109185 0,0.142857 0.03367,0.03367 0.109185,-0.03367 0.142857,0 0.06734,0.06734 -0.06734,0.218371 0,0.285714 0.03367,0.03367 0.109185,-0.03367 0.142857,0 0.03367,0.03367 0,0.09524 0,0.142857 0,0.04762 0,0.09524 0,0.142857 0,0.380953 0,0.761905 0,1.142858 0,0.238095 0,0.47619 0,0.714285 0,0.04762 0.03367,0.109186 0,0.142857 -0.03367,0.03367 -0.109186,-0.03367 -0.142857,0 -0.03438,0.03438 0.03438,0.537053 0,0.571429 -0.03367,0.03367 -0.109186,-0.03367 -0.142857,0 -0.04424,0.04424 0.04424,0.67005 0,0.714286 -0.03367,0.03367 -0.109186,-0.03367 -0.142858,0 -0.07143,0.07143 0.07143,0.357143 0,0.428571 -0.03367,0.03367 -0.109185,-0.03367 -0.142857,0 -0.07143,0.07143 0.07143,0.357143 0,0.428572 -0.03367,0.03367 -0.109185,-0.03367 -0.142857,0 -0.03367,0.03367 0.03367,0.109185 0,0.142857 -0.03367,0.03367 -0.100265,-0.0213 -0.142857,0 -0.06023,0.03012 -0.08262,0.11274 -0.142857,0.142857 -0.04259,0.0213 -0.100266,-0.0213 -0.142857,0 -0.06023,0.03012 -0.08262,0.11274 -0.142857,0.142857 -0.08518,0.04259 -0.218371,-0.06734 -0.285715,0 -0.03367,0.03367 0.03367,0.109185 0,0.142857 -0.06734,0.06734 -0.21837,-0.06734 -0.285714,0 -0.03367,0.03367 0.03367,0.109186 0,0.142857 -0.0046,0.0046 -0.393925,0 -0.428571,0 -0.04762,0 -0.109186,0.03367 -0.142858,0 -0.03367,-0.03367 0.03367,-0.109185 0,-0.142857 -0.06734,-0.06734 -0.21837,0.06734 -0.285714,0 -0.03367,-0.03367 0.03367,-0.109185 0,-0.142857 C 15.109185,32.966328 15,33.047619 15,33 c 0,-0.202381 0.666667,0.404762 -0.142857,0 -0.04259,-0.0213 0.03367,-0.109185 0,-0.142857 -0.06734,-0.06734 -0.218371,0.06734 -0.285714,0 -0.03367,-0.03367 0.03367,-0.109186 0,-0.142857 -0.0046,-0.0046 -0.393925,0 -0.428572,0"
       inkscape:connector-curvature="0" />
    <path
       style="fill:none;stroke:#000000;stroke-width:1px;stroke-linecap:butt;stroke-linejoin:miter;stroke-opacity:1"
       d="M 30,7.8571429 15.428571,8"
       id="path3127"
       inkscape:connector-curvature="0" />
    <path
       style="fill:none;stroke:#000000;stroke-width:1px;stroke-linecap:butt;stroke-linejoin:miter;stroke-opacity:1"
       d="M 29.428571,29.857143 18,30"
       id="path3131"
       inkscape:connector-curvature="0" />
  </g>
</svg>
